{
  "header": {
    "PPQ": 960,
    "timeSignature": [
      4,
      4
    ],
    "bpm": 135.000135000135,
    "name": "d03"
  },
  "tempo": [
    {
      "absoluteTime": 0,
      "seconds": 0,
      "bpm": 135.000135000135
    }
  ],
  "timeSignature": [
    {
      "absoluteTime": 0,
      "seconds": 0,
      "numerator": 4,
      "denominator": 2,
      "click": 24,
      "notesQ": 8
    }
  ],
  "startTime": 0,
  "duration": 72.98881589999998,
  "tracks": [
    {
      "startTime": 0,
      "duration": 0,
      "length": 0,
      "notes": [],
      "controlChanges": {},
      "id": 0,
      "name": "d03"
    },
    {
      "startTime": 1.777776,
      "duration": 72.98881589999998,
      "length": 245,
      "notes": [
        {
          "name": "F4",
          "midi": 65,
          "time": 1.777776,
          "velocity": 0.7322834645669292,
          "duration": 0.11111099999999996
        },
        {
          "name": "D4",
          "midi": 62,
          "time": 3.1143487375000003,
          "velocity": 0.5826771653543307,
          "duration": 0.10787026250000009
        },
        {
          "name": "F4",
          "midi": 65,
          "time": 3.5555520000000005,
          "velocity": 0.7322834645669292,
          "duration": 0.11111100000000018
        },
        {
          "name": "D4",
          "midi": 62,
          "time": 4.777773000000001,
          "velocity": 0.6141732283464567,
          "duration": 0.10787026249999965
        },
        {
          "name": "F4",
          "midi": 65,
          "time": 5.333328000000001,
          "velocity": 0.4881889763779528,
          "duration": 0.12777764999999963
        },
        {
          "name": "D4",
          "midi": 62,
          "time": 6.66666,
          "velocity": 0.6850393700787402,
          "duration": 0.08472213750000002
        },
        {
          "name": "F4",
          "midi": 65,
          "time": 7.111104,
          "velocity": 0.4881889763779528,
          "duration": 0.16064798749999998
        },
        {
          "name": "D4",
          "midi": 62,
          "time": 8.444436,
          "velocity": 0.6850393700787402,
          "duration": 0.09768508750000038
        },
        {
          "name": "F4",
          "midi": 65,
          "time": 8.88888,
          "velocity": 0.4881889763779528,
          "duration": 0.08749991250000022
        },
        {
          "name": "D4",
          "midi": 62,
          "time": 10.237952725,
          "velocity": 0.7322834645669292,
          "duration": 0.0953702750000005
        },
        {
          "name": "F4",
          "midi": 65,
          "time": 10.684248575,
          "velocity": 0.6141732283464567,
          "duration": 0.09351842499999918
        },
        {
          "name": "D4",
          "midi": 62,
          "time": 11.999987999999998,
          "velocity": 0.6850393700787402,
          "duration": 0.08842583750000088
        },
        {
          "name": "F4",
          "midi": 65,
          "time": 12.444431999999999,
          "velocity": 0.6141732283464567,
          "duration": 0.09120361249999931
        },
        {
          "name": "E4",
          "midi": 64,
          "time": 13.1296165,
          "velocity": 0.5511811023622047,
          "duration": 0.09999990000000025
        },
        {
          "name": "C4",
          "midi": 60,
          "time": 13.333319999999999,
          "velocity": 0.5196850393700787,
          "duration": 0.1111109999999993
        },
        {
          "name": "D4",
          "midi": 62,
          "time": 13.777763999999998,
          "velocity": 0.8031496062992126,
          "duration": 0.09814805000000071
        },
        {
          "name": "F4",
          "midi": 65,
          "time": 14.222207999999998,
          "velocity": 0.6299212598425197,
          "duration": 0.0898147250000001
        },
        {
          "name": "F4",
          "midi": 65,
          "time": 15.111095999999998,
          "velocity": 0.6614173228346457,
          "duration": 0.11157396249999962
        },
        {
          "name": "F4",
          "midi": 65,
          "time": 15.999983999999998,
          "velocity": 0.6614173228346457,
          "duration": 0.07685177500000151
        },
        {
          "name": "D4",
          "midi": 62,
          "time": 16.444428,
          "velocity": 0.6141732283464567,
          "duration": 0.09583323749999906
        },
        {
          "name": "C4",
          "midi": 60,
          "time": 16.555538999999996,
          "velocity": 0.48031496062992124,
          "duration": 0.10694433749999988
        },
        {
          "name": "E4",
          "midi": 64,
          "time": 16.785168399999996,
          "velocity": 0.4881889763779528,
          "duration": 0.11111100000000107
        },
        {
          "name": "F4",
          "midi": 65,
          "time": 16.888871999999996,
          "velocity": 0.6299212598425197,
          "duration": 0.09351842500000274
        },
        {
          "name": "E4",
          "midi": 64,
          "time": 17.229612399999997,
          "velocity": 0.5039370078740157,
          "duration": 0.11111100000000107
        },
        {
          "name": "F4",
          "midi": 65,
          "time": 17.777759999999997,
          "velocity": 0.6299212598425197,
          "duration": 0.0953702750000005
        },
        {
          "name": "C4",
          "midi": 60,
          "time": 17.777759999999997,
          "velocity": 0.5039370078740157,
          "duration": 0.10648137500000132
        },
        {
          "name": "C4",
          "midi": 60,
          "time": 18.111092999999997,
          "velocity": 0.5039370078740157,
          "duration": 0.11111100000000107
        },
        {
          "name": "D4",
          "midi": 62,
          "time": 18.222203999999998,
          "velocity": 0.6614173228346457,
          "duration": 0.09120361249999931
        },
        {
          "name": "F4",
          "midi": 65,
          "time": 18.666648,
          "velocity": 0.6614173228346457,
          "duration": 0.10648137500000132
        },
        {
          "name": "F4",
          "midi": 65,
          "time": 19.555536,
          "velocity": 0.6299212598425197,
          "duration": 0.10231471250000013
        },
        {
          "name": "C4",
          "midi": 60,
          "time": 19.555536,
          "velocity": 0.5196850393700787,
          "duration": 0.10648137500000132
        },
        {
          "name": "D4",
          "midi": 62,
          "time": 19.99998,
          "velocity": 0.6850393700787402,
          "duration": 0.086111025000001
        },
        {
          "name": "F4",
          "midi": 65,
          "time": 20.444424,
          "velocity": 0.6141732283464567,
          "duration": 0.1004628624999988
        },
        {
          "name": "C4",
          "midi": 60,
          "time": 21.11109,
          "velocity": 0.48031496062992124,
          "duration": 0.11111100000000107
        },
        {
          "name": "F4",
          "midi": 65,
          "time": 21.333312000000003,
          "velocity": 0.6299212598425197,
          "duration": 0.10925914999999975
        },
        {
          "name": "C4",
          "midi": 60,
          "time": 21.999978000000002,
          "velocity": 0.5511811023622047,
          "duration": 0.11111100000000107
        },
        {
          "name": "F4",
          "midi": 65,
          "time": 22.222200000000004,
          "velocity": 0.6299212598425197,
          "duration": 0.10277767499999868
        },
        {
          "name": "D4",
          "midi": 62,
          "time": 22.444422000000003,
          "velocity": 0.8031496062992126,
          "duration": 0.09305546250000063
        },
        {
          "name": "E4",
          "midi": 64,
          "time": 22.674051400000003,
          "velocity": 0.5196850393700787,
          "duration": 0.11527766249999871
        },
        {
          "name": "F4",
          "midi": 65,
          "time": 22.999977,
          "velocity": 0.6614173228346457,
          "duration": 0.1092591500000033
        },
        {
          "name": "E4",
          "midi": 64,
          "time": 23.007384400000003,
          "velocity": 0.5039370078740157,
          "duration": 0.09166657500000142
        },
        {
          "name": "C4",
          "midi": 60,
          "time": 23.555532000000003,
          "velocity": 0.5196850393700787,
          "duration": 0.08749991250000022
        },
        {
          "name": "F4",
          "midi": 65,
          "time": 23.999976000000004,
          "velocity": 0.6299212598425197,
          "duration": 0.09999990000000025
        },
        {
          "name": "D4",
          "midi": 62,
          "time": 24.444420000000004,
          "velocity": 0.8031496062992126,
          "duration": 0.10185175000000157
        },
        {
          "name": "F4",
          "midi": 65,
          "time": 24.888864000000005,
          "velocity": 0.7322834645669292,
          "duration": 0.12083321249999912
        },
        {
          "name": "E4",
          "midi": 64,
          "time": 25.118493400000006,
          "velocity": 0.5196850393700787,
          "duration": 0.11111100000000107
        },
        {
          "name": "C4",
          "midi": 60,
          "time": 25.333308000000006,
          "velocity": 0.5196850393700787,
          "duration": 0.10925914999999975
        },
        {
          "name": "E4",
          "midi": 64,
          "time": 25.562937400000006,
          "velocity": 0.5039370078740157,
          "duration": 0.055555500000000535
        },
        {
          "name": "F4",
          "midi": 65,
          "time": 25.777752000000007,
          "velocity": 0.6614173228346457,
          "duration": 0.09675916249999972
        },
        {
          "name": "C4",
          "midi": 60,
          "time": 25.888863000000008,
          "velocity": 0.5039370078740157,
          "duration": 0.1194443249999999
        },
        {
          "name": "D4",
          "midi": 62,
          "time": 26.111085000000006,
          "velocity": 0.6850393700787402,
          "duration": 0.10740729999999843
        },
        {
          "name": "F4",
          "midi": 65,
          "time": 26.666640000000005,
          "velocity": 0.6850393700787402,
          "duration": 0.10324063750000079
        },
        {
          "name": "C4",
          "midi": 60,
          "time": 27.222195000000006,
          "velocity": 0.48031496062992124,
          "duration": 0.11111100000000107
        },
        {
          "name": "F4",
          "midi": 65,
          "time": 27.555528000000006,
          "velocity": 0.6614173228346457,
          "duration": 0.1518517000000017
        },
        {
          "name": "D4",
          "midi": 62,
          "time": 27.999972000000007,
          "velocity": 0.8031496062992126,
          "duration": 0.10740729999999843
        },
        {
          "name": "F4",
          "midi": 65,
          "time": 28.444416000000004,
          "velocity": 0.6614173228346457,
          "duration": 0.10648137500000132
        },
        {
          "name": "D4",
          "midi": 62,
          "time": 28.780989737500004,
          "velocity": 0.8031496062992126,
          "duration": 0.08101843749999915
        },
        {
          "name": "D4",
          "midi": 62,
          "time": 28.999971000000002,
          "velocity": 0.6614173228346457,
          "duration": 0.06898141250000123
        },
        {
          "name": "C4",
          "midi": 60,
          "time": 28.999971000000002,
          "velocity": 0.5196850393700787,
          "duration": 0.11111100000000107
        },
        {
          "name": "D4",
          "midi": 62,
          "time": 29.222193000000004,
          "velocity": 0.6141732283464567,
          "duration": 0.062036975000001604
        },
        {
          "name": "D4",
          "midi": 62,
          "time": 29.333304000000005,
          "velocity": 0.7322834645669292,
          "duration": 0.054629574999999875
        },
        {
          "name": "F4",
          "midi": 65,
          "time": 29.333304000000005,
          "velocity": 0.6850393700787402,
          "duration": 0.10833322499999909
        },
        {
          "name": "D4",
          "midi": 62,
          "time": 29.444415000000003,
          "velocity": 0.7322834645669292,
          "duration": 0.11111100000000107
        },
        {
          "name": "D4",
          "midi": 62,
          "time": 29.666637000000005,
          "velocity": 0.7322834645669292,
          "duration": 0.11111100000000107
        },
        {
          "name": "E4",
          "midi": 64,
          "time": 29.674044400000007,
          "velocity": 0.4881889763779528,
          "duration": 0.1189813624999978
        },
        {
          "name": "F4",
          "midi": 65,
          "time": 29.777748000000006,
          "velocity": 0.6850393700787402,
          "duration": 0.10925914999999975
        },
        {
          "name": "C4",
          "midi": 60,
          "time": 29.883766412500005,
          "velocity": 0.5196850393700787,
          "duration": 0.11620358749999937
        },
        {
          "name": "E4",
          "midi": 64,
          "time": 30.118488400000004,
          "velocity": 0.48031496062992124,
          "duration": 0.06481475000000003
        },
        {
          "name": "F4",
          "midi": 65,
          "time": 30.222192000000003,
          "velocity": 0.6850393700787402,
          "duration": 0.07685177500000151
        },
        {
          "name": "C4",
          "midi": 60,
          "time": 30.777747000000005,
          "velocity": 0.5039370078740157,
          "duration": 0.09444434999999984
        },
        {
          "name": "F4",
          "midi": 65,
          "time": 31.111080000000005,
          "velocity": 0.6299212598425197,
          "duration": 0.08888879999999943
        },
        {
          "name": "D4",
          "midi": 62,
          "time": 31.555524000000005,
          "velocity": 0.6299212598425197,
          "duration": 0.08240732499999837
        },
        {
          "name": "C4",
          "midi": 60,
          "time": 31.666635000000003,
          "velocity": 0.48031496062992124,
          "duration": 0.08935176250000154
        },
        {
          "name": "F4",
          "midi": 65,
          "time": 31.999968000000006,
          "velocity": 0.6299212598425197,
          "duration": 0.08703695000000167
        },
        {
          "name": "D4",
          "midi": 62,
          "time": 32.44441200000001,
          "velocity": 0.6850393700787402,
          "duration": 0.08240732499999837
        },
        {
          "name": "C4",
          "midi": 60,
          "time": 32.55552300000001,
          "velocity": 0.4881889763779528,
          "duration": 0.08935176250000154
        },
        {
          "name": "F4",
          "midi": 65,
          "time": 32.88885600000001,
          "velocity": 0.6299212598425197,
          "duration": 0.05601846249999909
        },
        {
          "name": "D4",
          "midi": 62,
          "time": 33.33330000000001,
          "velocity": 0.6850393700787402,
          "duration": 0.06805548749999701
        },
        {
          "name": "C4",
          "midi": 60,
          "time": 33.444411,
          "velocity": 0.5039370078740157,
          "duration": 0.0763888124999994
        },
        {
          "name": "F4",
          "midi": 65,
          "time": 33.777744,
          "velocity": 0.6850393700787402,
          "duration": 0.08472213750000179
        },
        {
          "name": "D4",
          "midi": 62,
          "time": 34.222188,
          "velocity": 0.7322834645669292,
          "duration": 0.09305546249999708
        },
        {
          "name": "C4",
          "midi": 60,
          "time": 34.333299,
          "velocity": 0.5039370078740157,
          "duration": 0.08796287499999522
        },
        {
          "name": "E4",
          "midi": 64,
          "time": 34.340706399999995,
          "velocity": 0.4881889763779528,
          "duration": 0.08287028750000047
        },
        {
          "name": "F4",
          "midi": 65,
          "time": 34.66663199999999,
          "velocity": 0.6850393700787402,
          "duration": 0.09768508749999683
        },
        {
          "name": "D4",
          "midi": 62,
          "time": 35.11107599999999,
          "velocity": 0.6614173228346457,
          "duration": 0.0754628875000023
        },
        {
          "name": "C4",
          "midi": 60,
          "time": 35.22218699999999,
          "velocity": 0.5039370078740157,
          "duration": 0.09398138750000129
        },
        {
          "name": "F4",
          "midi": 65,
          "time": 35.555519999999994,
          "velocity": 0.6850393700787402,
          "duration": 0.09722212500000182
        },
        {
          "name": "D4",
          "midi": 62,
          "time": 35.999964,
          "velocity": 0.6614173228346457,
          "duration": 0.07083326249999544
        },
        {
          "name": "E4",
          "midi": 64,
          "time": 36.0073714,
          "velocity": 0.4645669291338583,
          "duration": 0.10833322499999554
        },
        {
          "name": "C4",
          "midi": 60,
          "time": 36.11107499999999,
          "velocity": 0.4881889763779528,
          "duration": 0.08842583749999733
        },
        {
          "name": "F4",
          "midi": 65,
          "time": 36.44440799999999,
          "velocity": 0.8031496062992126,
          "duration": 0.10509248750000211
        },
        {
          "name": "D4",
          "midi": 62,
          "time": 36.88885199999999,
          "velocity": 0.8031496062992126,
          "duration": 0.08935176250000154
        },
        {
          "name": "C4",
          "midi": 60,
          "time": 36.999962999999994,
          "velocity": 0.5196850393700787,
          "duration": 0.09305546249999708
        },
        {
          "name": "F4",
          "midi": 65,
          "time": 37.33329599999999,
          "velocity": 0.8031496062992126,
          "duration": 0.08796287500000233
        },
        {
          "name": "D4",
          "midi": 62,
          "time": 37.777739999999994,
          "velocity": 0.6850393700787402,
          "duration": 0.09259249999999497
        },
        {
          "name": "E4",
          "midi": 64,
          "time": 37.78514739999999,
          "velocity": 0.4881889763779528,
          "duration": 0.10370359999999579
        },
        {
          "name": "F4",
          "midi": 65,
          "time": 38.22218399999999,
          "velocity": 0.5511811023622047,
          "duration": 0.11111100000000107
        },
        {
          "name": "D4",
          "midi": 62,
          "time": 38.666627999999996,
          "velocity": 0.6614173228346457,
          "duration": 0.11111100000000107
        },
        {
          "name": "C4",
          "midi": 60,
          "time": 38.777739,
          "velocity": 0.5039370078740157,
          "duration": 0.0953702750000005
        },
        {
          "name": "F4",
          "midi": 65,
          "time": 39.111072,
          "velocity": 0.6614173228346457,
          "duration": 0.11111100000000107
        },
        {
          "name": "F4",
          "midi": 65,
          "time": 39.444405,
          "velocity": 0.6299212598425197,
          "duration": 0.09305546249999708
        },
        {
          "name": "E4",
          "midi": 64,
          "time": 39.5629234,
          "velocity": 0.48031496062992124,
          "duration": 0.10231471249999657
        },
        {
          "name": "C4",
          "midi": 60,
          "time": 39.666627,
          "velocity": 0.4645669291338583,
          "duration": 0.07222215000000176
        },
        {
          "name": "F4",
          "midi": 65,
          "time": 39.99996,
          "velocity": 0.6614173228346457,
          "duration": 0.07314807499999887
        },
        {
          "name": "D4",
          "midi": 62,
          "time": 40.444404,
          "velocity": 0.6850393700787402,
          "duration": 0.09583323750000261
        },
        {
          "name": "F4",
          "midi": 65,
          "time": 41.333292,
          "velocity": 0.6850393700787402,
          "duration": 0.0958332374999955
        },
        {
          "name": "E4",
          "midi": 64,
          "time": 41.3406994,
          "velocity": 0.5039370078740157,
          "duration": 0.08842583749999733
        },
        {
          "name": "C4",
          "midi": 60,
          "time": 41.444402999999994,
          "velocity": 0.5039370078740157,
          "duration": 0.11990728749999846
        },
        {
          "name": "F4",
          "midi": 65,
          "time": 41.66662499999999,
          "velocity": 0.6299212598425197,
          "duration": 0.08472213750000179
        },
        {
          "name": "C4",
          "midi": 60,
          "time": 41.88884699999999,
          "velocity": 0.48031496062992124,
          "duration": 0.08055547499999705
        },
        {
          "name": "D4",
          "midi": 62,
          "time": 42.22217999999999,
          "velocity": 0.7322834645669292,
          "duration": 0.08935176250000154
        },
        {
          "name": "F4",
          "midi": 65,
          "time": 42.22217999999999,
          "velocity": 0.7322834645669292,
          "duration": 0.08333325000000258
        },
        {
          "name": "F4",
          "midi": 65,
          "time": 42.777734999999986,
          "velocity": 0.6850393700787402,
          "duration": 0.10324063750000079
        },
        {
          "name": "D4",
          "midi": 62,
          "time": 43.11106799999999,
          "velocity": 0.6850393700787402,
          "duration": 0.07962954999999994
        },
        {
          "name": "F4",
          "midi": 65,
          "time": 43.44440099999999,
          "velocity": 0.6614173228346457,
          "duration": 0.08101843749999915
        },
        {
          "name": "E4",
          "midi": 64,
          "time": 43.67958594999999,
          "velocity": 0.4566929133858268,
          "duration": 0.10555544999999711
        },
        {
          "name": "D4",
          "midi": 62,
          "time": 43.99995599999998,
          "velocity": 0.6850393700787402,
          "duration": 0.0856480624999989
        },
        {
          "name": "C4",
          "midi": 60,
          "time": 43.99995599999998,
          "velocity": 0.48031496062992124,
          "duration": 0.0958332374999955
        },
        {
          "name": "F4",
          "midi": 65,
          "time": 44.22217799999998,
          "velocity": 0.7322834645669292,
          "duration": 0.09305546249999708
        },
        {
          "name": "C4",
          "midi": 60,
          "time": 44.44439999999997,
          "velocity": 0.48031496062992124,
          "duration": 0.08888879999999943
        },
        {
          "name": "D4",
          "midi": 62,
          "time": 44.88884399999997,
          "velocity": 0.6299212598425197,
          "duration": 0.09351842499999918
        },
        {
          "name": "E4",
          "midi": 64,
          "time": 45.00736239999997,
          "velocity": 0.5039370078740157,
          "duration": 0.0949073124999984
        },
        {
          "name": "F4",
          "midi": 65,
          "time": 45.22217699999997,
          "velocity": 0.6614173228346457,
          "duration": 0.11111100000000107
        },
        {
          "name": "D4",
          "midi": 62,
          "time": 45.777731999999965,
          "velocity": 0.6614173228346457,
          "duration": 0.0944443500000034
        },
        {
          "name": "F4",
          "midi": 65,
          "time": 46.22217599999997,
          "velocity": 0.7322834645669292,
          "duration": 0.07499992500000019
        },
        {
          "name": "D4",
          "midi": 62,
          "time": 46.55550899999997,
          "velocity": 0.6850393700787402,
          "duration": 0.09166657499999786
        },
        {
          "name": "E4",
          "midi": 64,
          "time": 46.56291639999997,
          "velocity": 0.5039370078740157,
          "duration": 0.09861101250000104
        },
        {
          "name": "F4",
          "midi": 65,
          "time": 46.66661999999997,
          "velocity": 0.6850393700787402,
          "duration": 0.10277767499999868
        },
        {
          "name": "F4",
          "midi": 65,
          "time": 46.99995299999997,
          "velocity": 0.6850393700787402,
          "duration": 0.08009251250000204
        },
        {
          "name": "F4",
          "midi": 65,
          "time": 47.555507999999975,
          "velocity": 0.6850393700787402,
          "duration": 0.08287028750000047
        },
        {
          "name": "C4",
          "midi": 60,
          "time": 47.99995199999997,
          "velocity": 0.5354330708661418,
          "duration": 0.10370359999999579
        },
        {
          "name": "D4",
          "midi": 62,
          "time": 48.01013717499997,
          "velocity": 0.7322834645669292,
          "duration": 0.10092582499999736
        },
        {
          "name": "E4",
          "midi": 64,
          "time": 48.229581399999965,
          "velocity": 0.4566929133858268,
          "duration": 0.13888874999999956
        },
        {
          "name": "C4",
          "midi": 60,
          "time": 48.33328499999997,
          "velocity": 0.48031496062992124,
          "duration": 0.10601841249999922
        },
        {
          "name": "F4",
          "midi": 65,
          "time": 48.44439599999997,
          "velocity": 0.6614173228346457,
          "duration": 0.086111025000001
        },
        {
          "name": "F4",
          "midi": 65,
          "time": 48.77772899999997,
          "velocity": 0.6614173228346457,
          "duration": 0.08657398750000311
        },
        {
          "name": "C4",
          "midi": 60,
          "time": 48.88883999999997,
          "velocity": 0.4881889763779528,
          "duration": 0.0944443500000034
        },
        {
          "name": "F4",
          "midi": 65,
          "time": 49.33328399999998,
          "velocity": 0.7322834645669292,
          "duration": 0.08935176250000154
        },
        {
          "name": "D4",
          "midi": 62,
          "time": 49.77772799999998,
          "velocity": 0.7322834645669292,
          "duration": 0.11296285000000239
        },
        {
          "name": "C4",
          "midi": 60,
          "time": 49.77772799999998,
          "velocity": 0.5196850393700787,
          "duration": 0.12731468750000374
        },
        {
          "name": "E4",
          "midi": 64,
          "time": 50.11846839999998,
          "velocity": 0.5039370078740157,
          "duration": 0.11944432500000346
        },
        {
          "name": "F4",
          "midi": 65,
          "time": 50.222171999999986,
          "velocity": 0.6850393700787402,
          "duration": 0.10324063750000079
        },
        {
          "name": "C4",
          "midi": 60,
          "time": 50.222171999999986,
          "velocity": 0.5039370078740157,
          "duration": 0.10185175000000157
        },
        {
          "name": "C4",
          "midi": 60,
          "time": 50.66661599999999,
          "velocity": 0.48031496062992124,
          "duration": 0.0953702750000005
        },
        {
          "name": "F4",
          "midi": 65,
          "time": 51.11105999999999,
          "velocity": 0.7322834645669292,
          "duration": 0.10555544999999711
        },
        {
          "name": "D4",
          "midi": 62,
          "time": 51.444392999999984,
          "velocity": 0.7322834645669292,
          "duration": 0.06249993750000016
        },
        {
          "name": "C4",
          "midi": 60,
          "time": 51.555503999999985,
          "velocity": 0.5196850393700787,
          "duration": 0.08935176250000154
        },
        {
          "name": "F4",
          "midi": 65,
          "time": 51.99994799999999,
          "velocity": 0.7322834645669292,
          "duration": 0.09351842499999918
        },
        {
          "name": "C4",
          "midi": 60,
          "time": 51.99994799999999,
          "velocity": 0.5039370078740157,
          "duration": 0.09583323750000261
        },
        {
          "name": "D4",
          "midi": 62,
          "time": 52.44439199999999,
          "velocity": 0.5511811023622047,
          "duration": 0.1236109875000011
        },
        {
          "name": "E4",
          "midi": 64,
          "time": 52.45179939999999,
          "velocity": 0.5196850393700787,
          "duration": 0.1324072750000056
        },
        {
          "name": "E4",
          "midi": 64,
          "time": 52.674021399999994,
          "velocity": 0.5196850393700787,
          "duration": 0.1041665624999979
        },
        {
          "name": "F4",
          "midi": 65,
          "time": 52.88883599999999,
          "velocity": 0.7322834645669292,
          "duration": 0.10185175000000157
        },
        {
          "name": "C4",
          "midi": 60,
          "time": 52.88883599999999,
          "velocity": 0.5196850393700787,
          "duration": 0.11111100000000107
        },
        {
          "name": "D4",
          "midi": 62,
          "time": 53.77772399999999,
          "velocity": 0.7322834645669292,
          "duration": 0.09583323750000261
        },
        {
          "name": "F4",
          "midi": 65,
          "time": 54.222167999999996,
          "velocity": 0.7322834645669292,
          "duration": 0.10092582499999736
        },
        {
          "name": "E4",
          "midi": 64,
          "time": 54.229575399999995,
          "velocity": 0.4881889763779528,
          "duration": 0.11249988750000028
        },
        {
          "name": "E4",
          "midi": 64,
          "time": 54.4517974,
          "velocity": 0.4645669291338583,
          "duration": 0.08796287500000233
        },
        {
          "name": "C4",
          "midi": 60,
          "time": 54.555501,
          "velocity": 0.4881889763779528,
          "duration": 0.141203562500003
        },
        {
          "name": "D4",
          "midi": 62,
          "time": 54.666612,
          "velocity": 0.6299212598425197,
          "duration": 0.07777769999999862
        },
        {
          "name": "C4",
          "midi": 60,
          "time": 54.999945,
          "velocity": 0.48031496062992124,
          "duration": 0.09953693749999815
        },
        {
          "name": "F4",
          "midi": 65,
          "time": 55.111056,
          "velocity": 0.6850393700787402,
          "duration": 0.11064803749999896
        },
        {
          "name": "D4",
          "midi": 62,
          "time": 55.555499999999995,
          "velocity": 0.7322834645669292,
          "duration": 0.09861101250000104
        },
        {
          "name": "F4",
          "midi": 65,
          "time": 55.999944,
          "velocity": 0.6614173228346457,
          "duration": 0.11018507499999686
        },
        {
          "name": "E4",
          "midi": 64,
          "time": 56.0073514,
          "velocity": 0.5039370078740157,
          "duration": 0.11574062500000082
        },
        {
          "name": "E4",
          "midi": 64,
          "time": 56.2295734,
          "velocity": 0.48031496062992124,
          "duration": 0.09999990000000025
        },
        {
          "name": "D4",
          "midi": 62,
          "time": 56.444388,
          "velocity": 0.7322834645669292,
          "duration": 0.09629619999999761
        },
        {
          "name": "F4",
          "midi": 65,
          "time": 56.888831999999994,
          "velocity": 0.6614173228346457,
          "duration": 0.10740729999999843
        },
        {
          "name": "C4",
          "midi": 60,
          "time": 56.888831999999994,
          "velocity": 0.48031496062992124,
          "duration": 0.09953693749999815
        },
        {
          "name": "C4",
          "midi": 60,
          "time": 57.22216499999999,
          "velocity": 0.48031496062992124,
          "duration": 0.13055542500000428
        },
        {
          "name": "D4",
          "midi": 62,
          "time": 57.33327599999999,
          "velocity": 0.6850393700787402,
          "duration": 0.09999990000000025
        },
        {
          "name": "E4",
          "midi": 64,
          "time": 57.67401639999999,
          "velocity": 0.48031496062992124,
          "duration": 0.086111025000001
        },
        {
          "name": "F4",
          "midi": 65,
          "time": 57.777719999999995,
          "velocity": 0.6299212598425197,
          "duration": 0.10277767499999868
        },
        {
          "name": "E4",
          "midi": 64,
          "time": 57.896238399999994,
          "velocity": 0.4645669291338583,
          "duration": 0.12499987500000032
        },
        {
          "name": "F4",
          "midi": 65,
          "time": 58.666608,
          "velocity": 0.6850393700787402,
          "duration": 0.123148024999999
        },
        {
          "name": "C4",
          "midi": 60,
          "time": 58.99994099999999,
          "velocity": 0.5039370078740157,
          "duration": 0.11851839999999925
        },
        {
          "name": "D4",
          "midi": 62,
          "time": 59.111051999999994,
          "velocity": 0.8031496062992126,
          "duration": 0.08101843749999915
        },
        {
          "name": "F4",
          "midi": 65,
          "time": 59.55549599999999,
          "velocity": 0.6614173228346457,
          "duration": 0.10740729999999843
        },
        {
          "name": "E4",
          "midi": 64,
          "time": 59.56290339999999,
          "velocity": 0.5039370078740157,
          "duration": 0.09907397500000314
        },
        {
          "name": "E4",
          "midi": 64,
          "time": 59.89623639999999,
          "velocity": 0.3464566929133858,
          "duration": 0.08935176250000154
        },
        {
          "name": "D4",
          "midi": 62,
          "time": 59.999939999999995,
          "velocity": 0.8031496062992126,
          "duration": 0.10509248750000211
        },
        {
          "name": "C4",
          "midi": 60,
          "time": 59.999939999999995,
          "velocity": 0.4881889763779528,
          "duration": 0.11296285000000239
        },
        {
          "name": "C4",
          "midi": 60,
          "time": 60.222162,
          "velocity": 0.48031496062992124,
          "duration": 0.09629619999999761
        },
        {
          "name": "E4",
          "midi": 64,
          "time": 60.229569399999995,
          "velocity": 0.5196850393700787,
          "duration": 0.12037025000000057
        },
        {
          "name": "F4",
          "midi": 65,
          "time": 60.444384,
          "velocity": 0.6299212598425197,
          "duration": 0.10555544999999711
        },
        {
          "name": "D4",
          "midi": 62,
          "time": 60.888828,
          "velocity": 0.8031496062992126,
          "duration": 0.12685172500000164
        },
        {
          "name": "F4",
          "midi": 65,
          "time": 61.333272,
          "velocity": 0.6614173228346457,
          "duration": 0.11018507500000396
        },
        {
          "name": "C4",
          "midi": 60,
          "time": 61.333272,
          "velocity": 0.48031496062992124,
          "duration": 0.09259250000000208
        },
        {
          "name": "D4",
          "midi": 62,
          "time": 61.777716000000005,
          "velocity": 0.8031496062992126,
          "duration": 0.10509248750000211
        },
        {
          "name": "F4",
          "midi": 65,
          "time": 62.22216000000001,
          "velocity": 0.6614173228346457,
          "duration": 0.11527766249999871
        },
        {
          "name": "C4",
          "midi": 60,
          "time": 62.22216000000001,
          "velocity": 0.5039370078740157,
          "duration": 0.09953693749999815
        },
        {
          "name": "C4",
          "midi": 60,
          "time": 62.44438200000001,
          "velocity": 0.4881889763779528,
          "duration": 0.09722212500000182
        },
        {
          "name": "D4",
          "midi": 62,
          "time": 62.666604000000014,
          "velocity": 0.8503937007874016,
          "duration": 0.0944443500000034
        },
        {
          "name": "F4",
          "midi": 65,
          "time": 63.11104800000002,
          "velocity": 0.6614173228346457,
          "duration": 0.12083321249999557
        },
        {
          "name": "E4",
          "midi": 64,
          "time": 63.118455400000016,
          "velocity": 0.5196850393700787,
          "duration": 0.11620358749999582
        },
        {
          "name": "D4",
          "midi": 62,
          "time": 63.555492000000015,
          "velocity": 0.8031496062992126,
          "duration": 0.1143517374999945
        },
        {
          "name": "C4",
          "midi": 60,
          "time": 63.555492000000015,
          "velocity": 0.4645669291338583,
          "duration": 0.10555544999999711
        },
        {
          "name": "E4",
          "midi": 64,
          "time": 63.56289940000001,
          "velocity": 0.5039370078740157,
          "duration": 0.1333331999999956
        },
        {
          "name": "F4",
          "midi": 65,
          "time": 63.99993600000001,
          "velocity": 0.6299212598425197,
          "duration": 0.11249988750000028
        },
        {
          "name": "E4",
          "midi": 64,
          "time": 64.00734340000001,
          "velocity": 0.5196850393700787,
          "duration": 0.10833322499999554
        },
        {
          "name": "C4",
          "midi": 60,
          "time": 64.333269,
          "velocity": 0.5039370078740157,
          "duration": 0.1041665624999979
        },
        {
          "name": "D4",
          "midi": 62,
          "time": 64.4392874125,
          "velocity": 0.8031496062992126,
          "duration": 0.11620358749999582
        },
        {
          "name": "C4",
          "midi": 60,
          "time": 64.66660199999998,
          "velocity": 0.4881889763779528,
          "duration": 0.10972211250000896
        },
        {
          "name": "D4",
          "midi": 62,
          "time": 64.77262041249999,
          "velocity": 0.8503937007874016,
          "duration": 0.11620358749999582
        },
        {
          "name": "F4",
          "midi": 65,
          "time": 64.88882399999999,
          "velocity": 0.6614173228346457,
          "duration": 0.10601841250000632
        },
        {
          "name": "D4",
          "midi": 62,
          "time": 65.222157,
          "velocity": 0.8031496062992126,
          "duration": 0.1138887750000066
        },
        {
          "name": "F4",
          "midi": 65,
          "time": 65.77771200000001,
          "velocity": 0.6141732283464567,
          "duration": 0.10740730000000553
        },
        {
          "name": "C4",
          "midi": 60,
          "time": 66.22215600000001,
          "velocity": 0.5354330708661418,
          "duration": 0.12638876249999953
        },
        {
          "name": "E4",
          "midi": 64,
          "time": 66.22956340000002,
          "velocity": 0.5354330708661418,
          "duration": 0.1444442999999893
        },
        {
          "name": "E4",
          "midi": 64,
          "time": 66.56289640000001,
          "velocity": 0.5196850393700787,
          "duration": 0.13981467499999667
        },
        {
          "name": "F4",
          "midi": 65,
          "time": 66.66660000000002,
          "velocity": 0.6299212598425197,
          "duration": 0.11111099999999396
        },
        {
          "name": "E4",
          "midi": 64,
          "time": 67.0073404,
          "velocity": 0.5354330708661418,
          "duration": 0.13935171250000167
        },
        {
          "name": "D4",
          "midi": 62,
          "time": 67.111044,
          "velocity": 0.8503937007874016,
          "duration": 0.10740729999999132
        },
        {
          "name": "C4",
          "midi": 60,
          "time": 67.111044,
          "velocity": 0.5039370078740157,
          "duration": 0.09907397499999604
        },
        {
          "name": "C4",
          "midi": 60,
          "time": 67.444377,
          "velocity": 0.4645669291338583,
          "duration": 0.09259249999999497
        },
        {
          "name": "F4",
          "midi": 65,
          "time": 67.555488,
          "velocity": 0.6141732283464567,
          "duration": 0.0768517749999944
        },
        {
          "name": "C4",
          "midi": 60,
          "time": 67.888821,
          "velocity": 0.48031496062992124,
          "duration": 0.10092582500000447
        },
        {
          "name": "D4",
          "midi": 62,
          "time": 67.999932,
          "velocity": 0.8031496062992126,
          "duration": 0.11759247499999503
        },
        {
          "name": "F4",
          "midi": 65,
          "time": 68.44437599999999,
          "velocity": 0.6614173228346457,
          "duration": 0.08101843750000626
        },
        {
          "name": "D4",
          "midi": 62,
          "time": 68.5726166125,
          "velocity": 0.7322834645669292,
          "duration": 0.09398138749999418
        },
        {
          "name": "D4",
          "midi": 62,
          "time": 68.89437554999999,
          "velocity": 0.8031496062992126,
          "duration": 0.10555544999999711
        },
        {
          "name": "F4",
          "midi": 65,
          "time": 69.33326399999999,
          "velocity": 0.6850393700787402,
          "duration": 0.09814805000000604
        },
        {
          "name": "C4",
          "midi": 60,
          "time": 69.33326399999999,
          "velocity": 0.5196850393700787,
          "duration": 0.14907392500001038
        },
        {
          "name": "E4",
          "midi": 64,
          "time": 69.6740044,
          "velocity": 0.5039370078740157,
          "duration": 0.1504628125000096
        },
        {
          "name": "D4",
          "midi": 62,
          "time": 69.777708,
          "velocity": 0.8031496062992126,
          "duration": 0.08564806250001311
        },
        {
          "name": "F4",
          "midi": 65,
          "time": 70.11104100000001,
          "velocity": 0.6614173228346457,
          "duration": 0.10277767499999868
        },
        {
          "name": "E4",
          "midi": 64,
          "time": 70.11844840000002,
          "velocity": 0.5039370078740157,
          "duration": 0.13148134999998717
        },
        {
          "name": "D4",
          "midi": 62,
          "time": 70.66659600000001,
          "velocity": 0.8503937007874016,
          "duration": 0.10555545000001132
        },
        {
          "name": "C4",
          "midi": 60,
          "time": 70.66659600000001,
          "velocity": 0.5039370078740157,
          "duration": 0.12870357500000296
        },
        {
          "name": "E4",
          "midi": 64,
          "time": 70.67400340000002,
          "velocity": 0.4881889763779528,
          "duration": 0.10092582500000447
        },
        {
          "name": "F4",
          "midi": 65,
          "time": 70.99992900000001,
          "velocity": 0.6614173228346457,
          "duration": 0.10046286250000946
        },
        {
          "name": "C4",
          "midi": 60,
          "time": 70.99992900000001,
          "velocity": 0.4566929133858268,
          "duration": 0.09814805000000604
        },
        {
          "name": "D4",
          "midi": 62,
          "time": 71.33326200000002,
          "velocity": 0.8031496062992126,
          "duration": 0.11111099999999396
        },
        {
          "name": "C4",
          "midi": 60,
          "time": 71.44437300000001,
          "velocity": 0.5039370078740157,
          "duration": 0.1143517375000016
        },
        {
          "name": "D4",
          "midi": 62,
          "time": 71.55965066250002,
          "velocity": 0.8503937007874016,
          "duration": 0.10694433749999632
        },
        {
          "name": "D4",
          "midi": 62,
          "time": 71.77770600000001,
          "velocity": 0.6614173228346457,
          "duration": 0.09120361249999576
        },
        {
          "name": "D4",
          "midi": 62,
          "time": 71.99992800000001,
          "velocity": 0.5669291338582677,
          "duration": 0.0861110249999939
        },
        {
          "name": "F4",
          "midi": 65,
          "time": 71.99992800000001,
          "velocity": 0.6850393700787402,
          "duration": 0.09814804999999183
        },
        {
          "name": "D4",
          "midi": 62,
          "time": 72.22215,
          "velocity": 0.5669291338582677,
          "duration": 0.08472213749999469
        },
        {
          "name": "D4",
          "midi": 62,
          "time": 72.44437199999999,
          "velocity": 0.7322834645669292,
          "duration": 0.06574067500000069
        },
        {
          "name": "D4",
          "midi": 62,
          "time": 72.66659399999999,
          "velocity": 0.7322834645669292,
          "duration": 0.11111099999999396
        },
        {
          "name": "C4",
          "midi": 60,
          "time": 72.77770499999998,
          "velocity": 0.5354330708661418,
          "duration": 0.08703694999999811
        },
        {
          "name": "D4",
          "midi": 62,
          "time": 72.88881599999998,
          "velocity": 0.7322834645669292,
          "duration": 0.09212953749999997
        },
        {
          "name": "F4",
          "midi": 65,
          "time": 72.88881599999998,
          "velocity": 0.7322834645669292,
          "duration": 0.08101843750000626
        },
        {
          "name": "E4",
          "midi": 64,
          "time": 72.89622339999998,
          "velocity": 0.5511811023622047,
          "duration": 0.09259249999999497
        }
      ],
      "controlChanges": {},
      "id": 1,
      "name": "ReaSynth",
      "channelNumber": 0,
      "isPercussion": false
    }
  ]
}