{
  "header": {
    "PPQ": 960,
    "timeSignature": [
      4,
      4
    ],
    "bpm": 85.00004250002125,
    "name": "d02"
  },
  "tempo": [
    {
      "absoluteTime": 0,
      "seconds": 0,
      "bpm": 85.00004250002125
    }
  ],
  "timeSignature": [
    {
      "absoluteTime": 0,
      "seconds": 0,
      "numerator": 4,
      "denominator": 2,
      "click": 24,
      "notesQ": 8
    }
  ],
  "startTime": 0,
  "duration": 75.61540336874997,
  "tracks": [
    {
      "startTime": 0,
      "duration": 0,
      "length": 0,
      "notes": [],
      "controlChanges": {},
      "id": 0,
      "name": "d02"
    },
    {
      "startTime": 13.764699,
      "duration": 75.61540336874997,
      "length": 180,
      "notes": [
        {
          "name": "D4",
          "midi": 62,
          "time": 13.764699,
          "velocity": 0.5511811023622047,
          "duration": 0.16764697500000025
        },
        {
          "name": "F4",
          "midi": 65,
          "time": 14.11764,
          "velocity": 0.5196850393700787,
          "duration": 0.1397058125000008
        },
        {
          "name": "E4",
          "midi": 64,
          "time": 14.11764,
          "velocity": 0.5354330708661418,
          "duration": 0.0808823125
        },
        {
          "name": "D4",
          "midi": 62,
          "time": 14.470581000000001,
          "velocity": 0.5511811023622047,
          "duration": 0.1301469937499995
        },
        {
          "name": "D4",
          "midi": 62,
          "time": 15.176463,
          "velocity": 0.5826771653543307,
          "duration": 0.13897051874999988
        },
        {
          "name": "F4",
          "midi": 65,
          "time": 15.529404,
          "velocity": 0.5196850393700787,
          "duration": 0.1080881812500003
        },
        {
          "name": "D4",
          "midi": 62,
          "time": 16.588227,
          "velocity": 0.5826771653543307,
          "duration": 0.16249991875000092
        },
        {
          "name": "F4",
          "midi": 65,
          "time": 16.941168,
          "velocity": 0.48031496062992124,
          "duration": 0.08235290000000006
        },
        {
          "name": "C4",
          "midi": 60,
          "time": 16.941168,
          "velocity": 0.5039370078740157,
          "duration": 0.13897051874999988
        },
        {
          "name": "D4",
          "midi": 62,
          "time": 17.294109000000002,
          "velocity": 0.5984251968503937,
          "duration": 0.09999995000000084
        },
        {
          "name": "E4",
          "midi": 64,
          "time": 17.647050000000004,
          "velocity": 0.5039370078740157,
          "duration": 0.05955879374999995
        },
        {
          "name": "D4",
          "midi": 62,
          "time": 17.999991000000005,
          "velocity": 0.6299212598425197,
          "duration": 0.11764700000000161
        },
        {
          "name": "D4",
          "midi": 62,
          "time": 19.411755000000007,
          "velocity": 0.5511811023622047,
          "duration": 0.11544111874999885
        },
        {
          "name": "E4",
          "midi": 64,
          "time": 19.411755000000007,
          "velocity": 0.5354330708661418,
          "duration": 0.09338230624999966
        },
        {
          "name": "F4",
          "midi": 65,
          "time": 19.764696000000004,
          "velocity": 0.5196850393700787,
          "duration": 0.12352934999999832
        },
        {
          "name": "C4",
          "midi": 60,
          "time": 19.764696000000004,
          "velocity": 0.5039370078740157,
          "duration": 0.12426464374999924
        },
        {
          "name": "D4",
          "midi": 62,
          "time": 20.117637000000002,
          "velocity": 0.5826771653543307,
          "duration": 0.10955876874999859
        },
        {
          "name": "D4",
          "midi": 62,
          "time": 20.823519,
          "velocity": 0.6299212598425197,
          "duration": 0.09779406875000163
        },
        {
          "name": "F4",
          "midi": 65,
          "time": 21.176460000000002,
          "velocity": 0.5039370078740157,
          "duration": 0.10073524375000176
        },
        {
          "name": "D4",
          "midi": 62,
          "time": 22.235283000000003,
          "velocity": 0.5984251968503937,
          "duration": 0.09411760000000058
        },
        {
          "name": "F4",
          "midi": 65,
          "time": 22.588224000000004,
          "velocity": 0.5196850393700787,
          "duration": 0.14044110625000172
        },
        {
          "name": "C4",
          "midi": 60,
          "time": 22.588224000000004,
          "velocity": 0.5196850393700787,
          "duration": 0.1470587500000029
        },
        {
          "name": "E4",
          "midi": 64,
          "time": 24.705870000000008,
          "velocity": 0.3700787401574803,
          "duration": 0.09632348124999979
        },
        {
          "name": "D4",
          "midi": 62,
          "time": 25.05881100000001,
          "velocity": 0.5511811023622047,
          "duration": 0.16764697500000025
        },
        {
          "name": "F4",
          "midi": 65,
          "time": 25.41175200000001,
          "velocity": 0.5039370078740157,
          "duration": 0.09558818749999887
        },
        {
          "name": "D4",
          "midi": 62,
          "time": 25.76469300000001,
          "velocity": 0.5511811023622047,
          "duration": 0.1301469937499995
        },
        {
          "name": "C4",
          "midi": 60,
          "time": 25.76469300000001,
          "velocity": 0.4330708661417323,
          "duration": 0.10955876874999859
        },
        {
          "name": "D4",
          "midi": 62,
          "time": 26.470575000000007,
          "velocity": 0.5826771653543307,
          "duration": 0.13897051874999988
        },
        {
          "name": "F4",
          "midi": 65,
          "time": 26.82351600000001,
          "velocity": 0.5196850393700787,
          "duration": 0.12647052499999845
        },
        {
          "name": "C4",
          "midi": 60,
          "time": 27.176457000000006,
          "velocity": 0.5196850393700787,
          "duration": 0.11617641249999977
        },
        {
          "name": "D4",
          "midi": 62,
          "time": 27.882339000000005,
          "velocity": 0.5826771653543307,
          "duration": 0.16249991875000092
        },
        {
          "name": "F4",
          "midi": 65,
          "time": 28.235280000000007,
          "velocity": 0.5511811023622047,
          "duration": 0.11249994374999872
        },
        {
          "name": "D4",
          "midi": 62,
          "time": 28.588221000000004,
          "velocity": 0.5984251968503937,
          "duration": 0.09999995000000084
        },
        {
          "name": "C4",
          "midi": 60,
          "time": 28.588221000000004,
          "velocity": 0.5039370078740157,
          "duration": 0.13382346250000055
        },
        {
          "name": "D4",
          "midi": 62,
          "time": 29.294103000000003,
          "velocity": 0.6299212598425197,
          "duration": 0.11764700000000161
        },
        {
          "name": "D4",
          "midi": 62,
          "time": 30.705867000000005,
          "velocity": 0.5511811023622047,
          "duration": 0.11544111874999885
        },
        {
          "name": "C4",
          "midi": 60,
          "time": 36.705864000000005,
          "velocity": 0.4566929133858268,
          "duration": 0.17647050000000064
        },
        {
          "name": "C4",
          "midi": 60,
          "time": 37.05880500000001,
          "velocity": 0.4566929133858268,
          "duration": 0.1676469749999967
        },
        {
          "name": "C4",
          "midi": 60,
          "time": 37.411746,
          "velocity": 0.4881889763779528,
          "duration": 0.1654410937499975
        },
        {
          "name": "C4",
          "midi": 60,
          "time": 37.764686999999995,
          "velocity": 0.48031496062992124,
          "duration": 0.14044110625000172
        },
        {
          "name": "C4",
          "midi": 60,
          "time": 38.117627999999996,
          "velocity": 0.48031496062992124,
          "duration": 0.13455875625000147
        },
        {
          "name": "C4",
          "midi": 60,
          "time": 38.470569,
          "velocity": 0.48031496062992124,
          "duration": 0.12499993750000016
        },
        {
          "name": "C4",
          "midi": 60,
          "time": 38.82351,
          "velocity": 0.5039370078740157,
          "duration": 0.1602940375000017
        },
        {
          "name": "C4",
          "midi": 60,
          "time": 39.176451,
          "velocity": 0.48031496062992124,
          "duration": 0.13970581249999725
        },
        {
          "name": "C4",
          "midi": 60,
          "time": 39.529391999999994,
          "velocity": 0.48031496062992124,
          "duration": 0.13897051874999988
        },
        {
          "name": "C4",
          "midi": 60,
          "time": 39.882332999999996,
          "velocity": 0.48031496062992124,
          "duration": 0.13455875625000147
        },
        {
          "name": "C4",
          "midi": 60,
          "time": 40.235274,
          "velocity": 0.4881889763779528,
          "duration": 0.1507352187500004
        },
        {
          "name": "C4",
          "midi": 60,
          "time": 40.588215,
          "velocity": 0.48031496062992124,
          "duration": 0.12941169999999858
        },
        {
          "name": "C4",
          "midi": 60,
          "time": 40.941156,
          "velocity": 0.4645669291338583,
          "duration": 0.1411763999999991
        },
        {
          "name": "C4",
          "midi": 60,
          "time": 41.294097,
          "velocity": 0.48031496062992124,
          "duration": 0.14999992500000303
        },
        {
          "name": "C4",
          "midi": 60,
          "time": 41.647038,
          "velocity": 0.48031496062992124,
          "duration": 0.1411763999999991
        },
        {
          "name": "C4",
          "midi": 60,
          "time": 41.999979,
          "velocity": 0.4881889763779528,
          "duration": 0.13529404999999883
        },
        {
          "name": "F4",
          "midi": 65,
          "time": 42.352920000000005,
          "velocity": 0.5826771653543307,
          "duration": 0.1602940375000017
        },
        {
          "name": "F4",
          "midi": 65,
          "time": 43.05880200000001,
          "velocity": 0.5826771653543307,
          "duration": 0.12720581874999937
        },
        {
          "name": "F4",
          "midi": 65,
          "time": 43.76468400000001,
          "velocity": 0.5511811023622047,
          "duration": 0.11838229375000253
        },
        {
          "name": "F4",
          "midi": 65,
          "time": 44.47056600000001,
          "velocity": 0.6614173228346457,
          "duration": 0.09926465624999992
        },
        {
          "name": "F4",
          "midi": 65,
          "time": 44.64703650000001,
          "velocity": 0.4094488188976378,
          "duration": 0.08823524999999677
        },
        {
          "name": "F4",
          "midi": 65,
          "time": 45.17644800000001,
          "velocity": 0.5354330708661418,
          "duration": 0.11323523749999964
        },
        {
          "name": "C4",
          "midi": 60,
          "time": 45.17644800000001,
          "velocity": 0.5354330708661418,
          "duration": 0.17058815000000038
        },
        {
          "name": "F4",
          "midi": 65,
          "time": 45.88233000000001,
          "velocity": 0.6141732283464567,
          "duration": 0.10661759375000202
        },
        {
          "name": "F4",
          "midi": 65,
          "time": 46.58821200000001,
          "velocity": 0.6850393700787402,
          "duration": 0.1433822812499983
        },
        {
          "name": "C4",
          "midi": 60,
          "time": 46.58821200000001,
          "velocity": 0.5354330708661418,
          "duration": 0.14632345624999488
        },
        {
          "name": "F4",
          "midi": 65,
          "time": 46.94115300000001,
          "velocity": 0.7322834645669292,
          "duration": 0.15514698124999882
        },
        {
          "name": "F4",
          "midi": 65,
          "time": 47.47056450000001,
          "velocity": 0.7322834645669292,
          "duration": 0.14999992500000303
        },
        {
          "name": "F4",
          "midi": 65,
          "time": 47.99997600000001,
          "velocity": 0.7322834645669292,
          "duration": 0.12499993750000016
        },
        {
          "name": "F4",
          "midi": 65,
          "time": 48.70585800000001,
          "velocity": 0.7322834645669292,
          "duration": 0.16323521249999828
        },
        {
          "name": "C4",
          "midi": 60,
          "time": 48.70585800000001,
          "velocity": 0.5196850393700787,
          "duration": 0.14705874999999935
        },
        {
          "name": "F4",
          "midi": 65,
          "time": 49.41174000000001,
          "velocity": 0.6614173228346457,
          "duration": 0.16985285625000301
        },
        {
          "name": "F4",
          "midi": 65,
          "time": 49.94115150000001,
          "velocity": 0.6850393700787402,
          "duration": 0.15441168750000145
        },
        {
          "name": "F4",
          "midi": 65,
          "time": 50.29409250000001,
          "velocity": 0.6614173228346457,
          "duration": 0.14632345625000198
        },
        {
          "name": "F4",
          "midi": 65,
          "time": 50.823504000000014,
          "velocity": 0.8503937007874016,
          "duration": 0.14705874999999935
        },
        {
          "name": "C4",
          "midi": 60,
          "time": 50.823504000000014,
          "velocity": 0.5196850393700787,
          "duration": 0.14926463124999856
        },
        {
          "name": "F4",
          "midi": 65,
          "time": 51.52938600000001,
          "velocity": 0.7322834645669292,
          "duration": 0.13529404999999883
        },
        {
          "name": "D4",
          "midi": 62,
          "time": 52.85291475000001,
          "velocity": 0.5354330708661418,
          "duration": 0.08823524999999677
        },
        {
          "name": "D4",
          "midi": 62,
          "time": 52.94115000000001,
          "velocity": 0.5354330708661418,
          "duration": 0.08823524999999677
        },
        {
          "name": "D4",
          "midi": 62,
          "time": 53.1176205,
          "velocity": 0.5354330708661418,
          "duration": 0.08823524999999677
        },
        {
          "name": "E4",
          "midi": 64,
          "time": 53.1176205,
          "velocity": 0.48031496062992124,
          "duration": 0.0874999562499994
        },
        {
          "name": "D4",
          "midi": 62,
          "time": 53.294090999999995,
          "velocity": 0.5354330708661418,
          "duration": 0.08823524999999677
        },
        {
          "name": "D4",
          "midi": 62,
          "time": 53.47056149999999,
          "velocity": 0.5354330708661418,
          "duration": 0.08823524999999677
        },
        {
          "name": "F4",
          "midi": 65,
          "time": 53.64703199999998,
          "velocity": 0.6850393700787402,
          "duration": 0.16470580000000012
        },
        {
          "name": "D4",
          "midi": 62,
          "time": 53.99997299999998,
          "velocity": 0.5196850393700787,
          "duration": 0.17279403124999249
        },
        {
          "name": "C4",
          "midi": 60,
          "time": 53.99997299999998,
          "velocity": 0.5196850393700787,
          "duration": 0.1286764062499941
        },
        {
          "name": "E4",
          "midi": 64,
          "time": 53.99997299999998,
          "velocity": 0.5354330708661418,
          "duration": 0.07426466874999704
        },
        {
          "name": "F4",
          "midi": 65,
          "time": 54.35291399999998,
          "velocity": 0.6299212598425197,
          "duration": 0.13235287500000226
        },
        {
          "name": "D4",
          "midi": 62,
          "time": 54.70585499999998,
          "velocity": 0.5196850393700787,
          "duration": 0.12058817500000174
        },
        {
          "name": "F4",
          "midi": 65,
          "time": 55.05879599999998,
          "velocity": 0.6299212598425197,
          "duration": 0.11397053124999701
        },
        {
          "name": "D4",
          "midi": 62,
          "time": 55.411736999999974,
          "velocity": 0.5511811023622047,
          "duration": 0.09705877500000071
        },
        {
          "name": "C4",
          "midi": 60,
          "time": 55.411736999999974,
          "velocity": 0.5354330708661418,
          "duration": 0.1286764062500012
        },
        {
          "name": "F4",
          "midi": 65,
          "time": 55.764677999999975,
          "velocity": 0.6614173228346457,
          "duration": 0.09338230624999966
        },
        {
          "name": "D4",
          "midi": 62,
          "time": 56.117618999999976,
          "velocity": 0.5039370078740157,
          "duration": 0.09558818749999887
        },
        {
          "name": "F4",
          "midi": 65,
          "time": 56.47055999999998,
          "velocity": 0.6299212598425197,
          "duration": 0.09338230624999966
        },
        {
          "name": "D4",
          "midi": 62,
          "time": 56.82350099999998,
          "velocity": 0.5669291338582677,
          "duration": 0.11617641250000332
        },
        {
          "name": "C4",
          "midi": 60,
          "time": 56.82350099999998,
          "velocity": 0.5354330708661418,
          "duration": 0.15220580625000224
        },
        {
          "name": "E4",
          "midi": 64,
          "time": 56.82350099999998,
          "velocity": 0.4881889763779528,
          "duration": 0.05882350000000258
        },
        {
          "name": "F4",
          "midi": 65,
          "time": 57.17644199999998,
          "velocity": 0.6614173228346457,
          "duration": 0.09926465624999992
        },
        {
          "name": "D4",
          "midi": 62,
          "time": 57.52938299999998,
          "velocity": 0.5826771653543307,
          "duration": 0.08161760624999914
        },
        {
          "name": "D4",
          "midi": 62,
          "time": 57.70585349999998,
          "velocity": 0.4881889763779528,
          "duration": 0.07867643125000257
        },
        {
          "name": "F4",
          "midi": 65,
          "time": 57.88232399999998,
          "velocity": 0.6299212598425197,
          "duration": 0.0948528937500015
        },
        {
          "name": "D4",
          "midi": 62,
          "time": 58.235264999999984,
          "velocity": 0.6141732283464567,
          "duration": 0.08970583749999861
        },
        {
          "name": "E4",
          "midi": 64,
          "time": 58.235264999999984,
          "velocity": 0.5196850393700787,
          "duration": 0.07132349375000047
        },
        {
          "name": "F4",
          "midi": 65,
          "time": 58.588205999999985,
          "velocity": 0.6614173228346457,
          "duration": 0.09044113125000308
        },
        {
          "name": "C4",
          "midi": 60,
          "time": 58.764676499999986,
          "velocity": 0.5196850393700787,
          "duration": 0.12941169999999858
        },
        {
          "name": "D4",
          "midi": 62,
          "time": 58.94114699999999,
          "velocity": 0.6614173228346457,
          "duration": 0.08235289999999651
        },
        {
          "name": "D4",
          "midi": 62,
          "time": 59.11761749999998,
          "velocity": 0.4881889763779528,
          "duration": 0.06102938125000179
        },
        {
          "name": "C4",
          "midi": 60,
          "time": 59.11761749999998,
          "velocity": 0.4645669291338583,
          "duration": 0.12132346874999911
        },
        {
          "name": "F4",
          "midi": 65,
          "time": 59.29408799999998,
          "velocity": 0.6614173228346457,
          "duration": 0.09338230624999966
        },
        {
          "name": "D4",
          "midi": 62,
          "time": 59.64702899999998,
          "velocity": 0.6299212598425197,
          "duration": 0.09264701250000229
        },
        {
          "name": "E4",
          "midi": 64,
          "time": 59.64702899999998,
          "velocity": 0.5196850393700787,
          "duration": 0.08088231250000177
        },
        {
          "name": "F4",
          "midi": 65,
          "time": 59.99996999999998,
          "velocity": 0.6614173228346457,
          "duration": 0.09999994999999728
        },
        {
          "name": "D4",
          "midi": 62,
          "time": 60.35291099999998,
          "velocity": 0.6299212598425197,
          "duration": 0.07279408125000231
        },
        {
          "name": "D4",
          "midi": 62,
          "time": 60.52938149999998,
          "velocity": 0.5039370078740157,
          "duration": 0.06911761250000126
        },
        {
          "name": "F4",
          "midi": 65,
          "time": 60.70585199999998,
          "velocity": 0.6850393700787402,
          "duration": 0.10367641874999833
        },
        {
          "name": "C4",
          "midi": 60,
          "time": 60.70585199999998,
          "velocity": 0.5196850393700787,
          "duration": 0.15147051249999777
        },
        {
          "name": "D4",
          "midi": 62,
          "time": 61.05879299999998,
          "velocity": 0.6141732283464567,
          "duration": 0.08235289999999651
        },
        {
          "name": "F4",
          "midi": 65,
          "time": 61.411733999999974,
          "velocity": 0.7322834645669292,
          "duration": 0.11617641250000332
        },
        {
          "name": "D4",
          "midi": 62,
          "time": 61.764674999999976,
          "velocity": 0.6614173228346457,
          "duration": 0.05367644374999969
        },
        {
          "name": "D4",
          "midi": 62,
          "time": 61.941145499999976,
          "velocity": 0.5354330708661418,
          "duration": 0.07647055000000336
        },
        {
          "name": "F4",
          "midi": 65,
          "time": 62.11761599999998,
          "velocity": 0.6850393700787402,
          "duration": 0.07499996250000152
        },
        {
          "name": "D4",
          "midi": 62,
          "time": 62.47055699999998,
          "velocity": 0.6299212598425197,
          "duration": 0.08088231250000177
        },
        {
          "name": "C4",
          "midi": 60,
          "time": 62.47055699999998,
          "velocity": 0.4881889763779528,
          "duration": 0.11102935625000043
        },
        {
          "name": "E4",
          "midi": 64,
          "time": 62.47055699999998,
          "velocity": 0.5354330708661418,
          "duration": 0.07573525624999888
        },
        {
          "name": "F4",
          "midi": 65,
          "time": 62.82349799999998,
          "velocity": 0.6850393700787402,
          "duration": 0.08970583749999861
        },
        {
          "name": "C4",
          "midi": 60,
          "time": 62.99996849999998,
          "velocity": 0.4881889763779528,
          "duration": 0.09852936250000255
        },
        {
          "name": "D4",
          "midi": 62,
          "time": 63.17643899999998,
          "velocity": 0.6299212598425197,
          "duration": 0.07426466874999704
        },
        {
          "name": "D4",
          "midi": 62,
          "time": 63.352909499999974,
          "velocity": 0.5511811023622047,
          "duration": 0.06617643749999758
        },
        {
          "name": "F4",
          "midi": 65,
          "time": 63.529379999999975,
          "velocity": 0.6614173228346457,
          "duration": 0.07132349375000047
        },
        {
          "name": "D4",
          "midi": 62,
          "time": 63.882320999999976,
          "velocity": 0.6614173228346457,
          "duration": 0.06764702499999942
        },
        {
          "name": "E4",
          "midi": 64,
          "time": 64.05879149999997,
          "velocity": 0.5354330708661418,
          "duration": 0.08897054374999414
        },
        {
          "name": "F4",
          "midi": 65,
          "time": 64.23526199999996,
          "velocity": 0.6850393700787402,
          "duration": 0.0779411375000052
        },
        {
          "name": "D4",
          "midi": 62,
          "time": 64.58820299999996,
          "velocity": 0.6850393700787402,
          "duration": 0.07132349375000047
        },
        {
          "name": "D4",
          "midi": 62,
          "time": 64.76467349999996,
          "velocity": 0.5511811023622047,
          "duration": 0.0727940812499952
        },
        {
          "name": "F4",
          "midi": 65,
          "time": 64.94114399999995,
          "velocity": 0.6850393700787402,
          "duration": 0.07426466875000415
        },
        {
          "name": "D4",
          "midi": 62,
          "time": 65.29408499999995,
          "velocity": 0.7322834645669292,
          "duration": 0.07132349375000047
        },
        {
          "name": "C4",
          "midi": 60,
          "time": 65.29408499999995,
          "velocity": 0.5039370078740157,
          "duration": 0.09999994999999728
        },
        {
          "name": "F4",
          "midi": 65,
          "time": 65.64702599999995,
          "velocity": 0.6850393700787402,
          "duration": 0.09044113125000308
        },
        {
          "name": "D4",
          "midi": 62,
          "time": 65.99996699999996,
          "velocity": 0.6614173228346457,
          "duration": 0.06691173125000205
        },
        {
          "name": "D4",
          "midi": 62,
          "time": 66.17643749999996,
          "velocity": 0.5196850393700787,
          "duration": 0.050735268750003115
        },
        {
          "name": "F4",
          "midi": 65,
          "time": 66.35290799999997,
          "velocity": 0.6141732283464567,
          "duration": 0.05882350000000258
        },
        {
          "name": "D4",
          "midi": 62,
          "time": 66.70584899999997,
          "velocity": 0.6850393700787402,
          "duration": 0.07205878749999783
        },
        {
          "name": "C4",
          "midi": 60,
          "time": 66.70584899999997,
          "velocity": 0.5196850393700787,
          "duration": 0.11617641249999622
        },
        {
          "name": "F4",
          "midi": 65,
          "time": 67.05878999999997,
          "velocity": 0.6299212598425197,
          "duration": 0.07647054999999625
        },
        {
          "name": "D4",
          "midi": 62,
          "time": 67.41173099999997,
          "velocity": 0.6850393700787402,
          "duration": 0.07573525624999888
        },
        {
          "name": "F4",
          "midi": 65,
          "time": 67.76467199999998,
          "velocity": 0.6850393700787402,
          "duration": 0.0779411375000052
        },
        {
          "name": "C4",
          "midi": 60,
          "time": 67.94114249999998,
          "velocity": 0.4881889763779528,
          "duration": 0.14705874999999935
        },
        {
          "name": "D4",
          "midi": 62,
          "time": 68.11761299999998,
          "velocity": 0.7322834645669292,
          "duration": 0.08529407499999309
        },
        {
          "name": "E4",
          "midi": 64,
          "time": 68.11761299999998,
          "velocity": 0.5039370078740157,
          "duration": 0.08382348749999835
        },
        {
          "name": "F4",
          "midi": 65,
          "time": 68.47055399999996,
          "velocity": 0.7322834645669292,
          "duration": 0.09411760000000413
        },
        {
          "name": "D4",
          "midi": 62,
          "time": 68.82349499999997,
          "velocity": 0.7322834645669292,
          "duration": 0.06691173125000205
        },
        {
          "name": "D4",
          "midi": 62,
          "time": 68.99996549999997,
          "velocity": 0.6141732283464567,
          "duration": 0.0801470187499973
        },
        {
          "name": "F4",
          "midi": 65,
          "time": 69.17643599999997,
          "velocity": 0.6614173228346457,
          "duration": 0.09264701249999518
        },
        {
          "name": "D4",
          "midi": 62,
          "time": 69.52937699999997,
          "velocity": 0.6850393700787402,
          "duration": 0.08676466250000203
        },
        {
          "name": "C4",
          "midi": 60,
          "time": 69.52937699999997,
          "velocity": 0.4881889763779528,
          "duration": 0.09264701249999518
        },
        {
          "name": "E4",
          "midi": 64,
          "time": 69.70584749999996,
          "velocity": 0.5511811023622047,
          "duration": 0.08455878124999572
        },
        {
          "name": "F4",
          "midi": 65,
          "time": 69.88231799999996,
          "velocity": 0.7322834645669292,
          "duration": 0.09411760000000413
        },
        {
          "name": "D4",
          "midi": 62,
          "time": 70.23525899999996,
          "velocity": 0.6850393700787402,
          "duration": 0.07720584374999362
        },
        {
          "name": "D4",
          "midi": 62,
          "time": 70.41172949999995,
          "velocity": 0.5196850393700787,
          "duration": 0.0779411375000052
        },
        {
          "name": "F4",
          "midi": 65,
          "time": 70.58819999999996,
          "velocity": 0.6614173228346457,
          "duration": 0.09117642500000045
        },
        {
          "name": "C4",
          "midi": 60,
          "time": 70.58819999999996,
          "velocity": 0.5196850393700787,
          "duration": 0.13676463749999357
        },
        {
          "name": "D4",
          "midi": 62,
          "time": 70.94114099999994,
          "velocity": 0.7322834645669292,
          "duration": 0.07867643125000257
        },
        {
          "name": "F4",
          "midi": 65,
          "time": 71.29408199999995,
          "velocity": 0.7322834645669292,
          "duration": 0.08676466250000203
        },
        {
          "name": "C4",
          "midi": 60,
          "time": 71.29408199999995,
          "velocity": 0.5511811023622047,
          "duration": 0.1022058312500036
        },
        {
          "name": "D4",
          "midi": 62,
          "time": 71.64702299999995,
          "velocity": 0.6850393700787402,
          "duration": 0.06249996875000363
        },
        {
          "name": "D4",
          "midi": 62,
          "time": 71.82349349999996,
          "velocity": 0.5039370078740157,
          "duration": 0.04926468124999417
        },
        {
          "name": "F4",
          "midi": 65,
          "time": 71.99996399999995,
          "velocity": 0.6850393700787402,
          "duration": 0.08529407499999309
        },
        {
          "name": "C4",
          "midi": 60,
          "time": 72.17643449999994,
          "velocity": 0.5511811023622047,
          "duration": 0.09264701249999518
        },
        {
          "name": "D4",
          "midi": 62,
          "time": 72.35290499999994,
          "velocity": 0.6850393700787402,
          "duration": 0.07573525624999888
        },
        {
          "name": "F4",
          "midi": 65,
          "time": 72.70584599999994,
          "velocity": 0.6850393700787402,
          "duration": 0.08970583750000571
        },
        {
          "name": "C4",
          "midi": 60,
          "time": 72.70584599999994,
          "velocity": 0.5511811023622047,
          "duration": 0.0926470125000094
        },
        {
          "name": "D4",
          "midi": 62,
          "time": 73.05878699999995,
          "velocity": 0.6850393700787402,
          "duration": 0.06470584999999573
        },
        {
          "name": "D4",
          "midi": 62,
          "time": 73.23525749999995,
          "velocity": 0.5511811023622047,
          "duration": 0.05955879374999995
        },
        {
          "name": "F4",
          "midi": 65,
          "time": 73.41172799999994,
          "velocity": 0.7322834645669292,
          "duration": 0.09558818749999887
        },
        {
          "name": "C4",
          "midi": 60,
          "time": 73.41172799999994,
          "velocity": 0.6141732283464567,
          "duration": 0.0948528937500015
        },
        {
          "name": "F4",
          "midi": 65,
          "time": 74.11760999999994,
          "velocity": 0.8031496062992126,
          "duration": 0.08823524999999677
        },
        {
          "name": "C4",
          "midi": 60,
          "time": 74.11760999999994,
          "velocity": 0.5511811023622047,
          "duration": 0.12205876250000358
        },
        {
          "name": "C4",
          "midi": 60,
          "time": 74.64702149999995,
          "velocity": 0.5669291338582677,
          "duration": 0.08602936875000466
        },
        {
          "name": "F4",
          "midi": 65,
          "time": 74.82349199999996,
          "velocity": 0.6614173228346457,
          "duration": 0.10367641874999833
        },
        {
          "name": "C4",
          "midi": 60,
          "time": 74.82349199999996,
          "velocity": 0.5039370078740157,
          "duration": 0.09117642500000045
        },
        {
          "name": "F4",
          "midi": 65,
          "time": 75.17643299999996,
          "velocity": 0.8031496062992126,
          "duration": 0.08823524999999677
        },
        {
          "name": "F4",
          "midi": 65,
          "time": 75.52937399999996,
          "velocity": 0.8031496062992126,
          "duration": 0.17647050000000775
        },
        {
          "name": "C4",
          "midi": 60,
          "time": 75.52937399999996,
          "velocity": 0.5984251968503937,
          "duration": 0.08602936875000466
        }
      ],
      "controlChanges": {},
      "id": 1,
      "name": "ReaSynth",
      "channelNumber": 0,
      "isPercussion": false
    }
  ]
}