# Blender 4.0.2
# www.blender.org
o dentro
v -1.184640 0.385864 0.153486
v -1.195455 0.385864 0.153170
v -1.204549 0.385864 0.152371
v -1.213550 0.385864 0.151045
v -1.222413 0.385864 0.149197
v -1.231091 0.385864 0.146837
v -1.239542 0.385864 0.143978
v -1.247721 0.385864 0.140633
v -1.255587 0.385864 0.136820
v -1.263101 0.385864 0.132559
v -1.270223 0.385864 0.127870
v -1.276917 0.385864 0.122779
v -1.283150 0.385864 0.117310
v -1.288889 0.385864 0.111492
v -1.294106 0.385864 0.105354
v -1.298773 0.385864 0.098928
v -1.302867 0.385864 0.092246
v -1.306367 0.385864 0.085343
v -1.309256 0.385864 0.078253
v -1.311518 0.385864 0.071013
v -1.313142 0.385864 0.063660
v -1.314120 0.385864 0.056231
v -1.314506 0.385864 0.047396
v -1.195455 0.385864 -0.153170
v -1.184640 0.385864 -0.153486
v -1.204549 0.385864 -0.152371
v -1.213550 0.385864 -0.151045
v -1.222413 0.385864 -0.149197
v -1.231091 0.385864 -0.146837
v -1.239542 0.385864 -0.143978
v -1.247721 0.385864 -0.140633
v -1.255587 0.385864 -0.136820
v -1.263101 0.385864 -0.132559
v -1.270223 0.385864 -0.127870
v -1.276917 0.385864 -0.122779
v -1.283150 0.385864 -0.117310
v -1.288889 0.385864 -0.111492
v -1.294106 0.385864 -0.105354
v -1.298773 0.385864 -0.098928
v -1.302867 0.385864 -0.092246
v -1.306367 0.385864 -0.085343
v -1.309256 0.385864 -0.078253
v -1.311518 0.385864 -0.071013
v -1.313142 0.385864 -0.063660
v -1.314120 0.385864 -0.056231
v -1.314506 0.385864 -0.047396
v 1.314120 0.385864 -0.056231
v 1.314506 0.385864 -0.047396
v 1.313142 0.385864 -0.063660
v 1.311518 0.385864 -0.071013
v 1.309256 0.385864 -0.078253
v 1.306367 0.385864 -0.085343
v 1.302867 0.385864 -0.092246
v 1.298773 0.385864 -0.098928
v 1.294106 0.385864 -0.105354
v 1.288889 0.385864 -0.111492
v 1.283150 0.385864 -0.117310
v 1.276917 0.385864 -0.122779
v 1.270223 0.385864 -0.127870
v 1.263101 0.385864 -0.132559
v 1.255587 0.385864 -0.136820
v 1.247721 0.385864 -0.140633
v 1.239542 0.385864 -0.143978
v 1.231091 0.385864 -0.146837
v 1.222413 0.385864 -0.149197
v 1.213550 0.385864 -0.151045
v 1.204549 0.385864 -0.152371
v 1.195455 0.385864 -0.153170
v 1.184640 0.385864 -0.153486
v 1.195455 0.385864 0.153170
v 1.184640 0.385864 0.153486
v 1.204549 0.385864 0.152371
v 1.213550 0.385864 0.151045
v 1.222413 0.385864 0.149197
v 1.231091 0.385864 0.146837
v 1.239542 0.385864 0.143978
v 1.247721 0.385864 0.140633
v 1.255587 0.385864 0.136820
v 1.263101 0.385864 0.132559
v 1.270223 0.385864 0.127870
v 1.276917 0.385864 0.122779
v 1.283150 0.385864 0.117310
v 1.288889 0.385864 0.111492
v 1.294106 0.385864 0.105354
v 1.298773 0.385864 0.098928
v 1.302867 0.385864 0.092246
v 1.306367 0.385864 0.085343
v 1.309256 0.385864 0.078253
v 1.311518 0.385864 0.071013
v 1.313142 0.385864 0.063660
v 1.314120 0.385864 0.056231
v 1.314506 0.385864 0.047396
v -1.184640 0.422508 0.153486
v -1.195455 0.422508 0.153170
v -1.204549 0.422508 0.152371
v -1.213550 0.422508 0.151045
v -1.222413 0.422508 0.149197
v -1.231091 0.422508 0.146837
v -1.239542 0.422508 0.143978
v -1.247721 0.422508 0.140633
v -1.255587 0.422508 0.136820
v -1.263101 0.422508 0.132559
v -1.270223 0.422508 0.127870
v -1.276917 0.422508 0.122779
v -1.283150 0.422508 0.117310
v -1.288889 0.422508 0.111492
v -1.294106 0.422508 0.105354
v -1.298773 0.422508 0.098928
v -1.302867 0.422508 0.092246
v -1.306367 0.422508 0.085343
v -1.309256 0.422508 0.078253
v -1.311518 0.422508 0.071013
v -1.313142 0.422508 0.063660
v -1.314120 0.422508 0.056231
v -1.314506 0.422508 0.047396
v -1.195455 0.422508 -0.153170
v -1.184640 0.422508 -0.153486
v -1.204549 0.422508 -0.152371
v -1.213550 0.422508 -0.151045
v -1.222413 0.422508 -0.149197
v -1.231091 0.422508 -0.146837
v -1.239542 0.422508 -0.143978
v -1.247721 0.422508 -0.140633
v -1.255587 0.422508 -0.136820
v -1.263101 0.422508 -0.132559
v -1.270223 0.422508 -0.127870
v -1.276917 0.422508 -0.122779
v -1.283150 0.422508 -0.117310
v -1.288889 0.422508 -0.111492
v -1.294106 0.422508 -0.105354
v -1.298773 0.422508 -0.098928
v -1.302867 0.422508 -0.092246
v -1.306367 0.422508 -0.085343
v -1.309256 0.422508 -0.078253
v -1.311518 0.422508 -0.071013
v -1.313142 0.422508 -0.063660
v -1.314120 0.422508 -0.056231
v -1.314506 0.422508 -0.047396
v 1.314120 0.422508 -0.056231
v 1.314506 0.422508 -0.047396
v 1.313142 0.422508 -0.063660
v 1.311518 0.422508 -0.071013
v 1.309256 0.422508 -0.078253
v 1.306367 0.422508 -0.085343
v 1.302867 0.422508 -0.092246
v 1.298773 0.422508 -0.098928
v 1.294106 0.422508 -0.105354
v 1.288889 0.422508 -0.111492
v 1.283150 0.422508 -0.117310
v 1.276917 0.422508 -0.122779
v 1.270223 0.422508 -0.127870
v 1.263101 0.422508 -0.132559
v 1.255587 0.422508 -0.136820
v 1.247721 0.422508 -0.140633
v 1.239542 0.422508 -0.143978
v 1.231091 0.422508 -0.146837
v 1.222413 0.422508 -0.149197
v 1.213550 0.422508 -0.151045
v 1.204549 0.422508 -0.152371
v 1.195455 0.422508 -0.153170
v 1.184640 0.422508 -0.153486
v 1.195455 0.422508 0.153170
v 1.184640 0.422508 0.153486
v 1.204549 0.422508 0.152371
v 1.213550 0.422508 0.151045
v 1.222413 0.422508 0.149197
v 1.231091 0.422508 0.146837
v 1.239542 0.422508 0.143978
v 1.247721 0.422508 0.140633
v 1.255587 0.422508 0.136820
v 1.263101 0.422508 0.132559
v 1.270223 0.422508 0.127870
v 1.276917 0.422508 0.122779
v 1.283150 0.422508 0.117310
v 1.288889 0.422508 0.111492
v 1.294106 0.422508 0.105354
v 1.298773 0.422508 0.098928
v 1.302867 0.422508 0.092246
v 1.306367 0.422508 0.085343
v 1.309256 0.422508 0.078253
v 1.311518 0.422508 0.071013
v 1.313142 0.422508 0.063660
v 1.314120 0.422508 0.056231
v 1.314506 0.422508 0.047396
vn -0.0000 -1.0000 -0.0000
vn -0.0000 1.0000 -0.0000
vn 0.5499 -0.0000 -0.8353
vn -0.4934 -0.0000 -0.8698
vn -0.2624 -0.0000 0.9650
vn 0.9261 -0.0000 0.3773
vn 0.4934 -0.0000 -0.8698
vn -0.5499 -0.0000 -0.8353
vn -0.3205 -0.0000 0.9472
vn 0.9545 -0.0000 0.2982
vn 0.4362 -0.0000 -0.8999
vn -0.6054 -0.0000 -0.7959
vn -0.3785 -0.0000 0.9256
vn 0.9765 -0.0000 0.2156
vn 0.3785 -0.0000 -0.9256
vn -0.6595 -0.0000 -0.7517
vn -0.4362 -0.0000 0.8999
vn 0.9914 -0.0000 0.1305
vn 0.3205 -0.0000 -0.9472
vn -0.7119 -0.0000 -0.7023
vn -0.4934 -0.0000 0.8698
vn 0.9990 -0.0000 0.0437
vn 0.2624 -0.0000 -0.9650
vn -0.7620 -0.0000 -0.6476
vn -0.5499 -0.0000 0.8353
vn -1.0000 -0.0000 -0.0000
vn 0.2041 -0.0000 -0.9789
vn -0.8091 -0.0000 -0.5877
vn -0.6054 -0.0000 0.7959
vn -0.0000 -0.0000 1.0000
vn 0.1458 -0.0000 -0.9893
vn -0.8527 -0.0000 -0.5225
vn -0.6595 -0.0000 0.7517
vn 1.0000 -0.0000 -0.0000
vn 0.0875 -0.0000 -0.9962
vn -0.8919 -0.0000 -0.4522
vn -0.7119 -0.0000 0.7023
vn -0.0000 -0.0000 -1.0000
vn 0.0292 -0.0000 -0.9996
vn -0.9261 -0.0000 -0.3773
vn -0.7620 -0.0000 0.6476
vn 0.0292 -0.0000 0.9996
vn -0.9545 -0.0000 -0.2982
vn -0.8091 -0.0000 0.5877
vn 0.0875 -0.0000 0.9962
vn -0.9765 -0.0000 -0.2156
vn -0.8527 -0.0000 0.5225
vn 0.1458 -0.0000 0.9893
vn -0.9914 -0.0000 -0.1305
vn -0.8919 -0.0000 0.4522
vn 0.2041 -0.0000 0.9789
vn -0.9990 -0.0000 -0.0437
vn -0.9261 -0.0000 0.3773
vn 0.2624 -0.0000 0.9650
vn 0.9990 -0.0000 -0.0437
vn -0.9545 -0.0000 0.2982
vn 0.3205 -0.0000 0.9472
vn 0.9914 -0.0000 -0.1305
vn -0.9765 -0.0000 0.2156
vn 0.3785 -0.0000 0.9256
vn 0.9765 -0.0000 -0.2156
vn -0.9914 -0.0000 0.1305
vn 0.4362 -0.0000 0.8999
vn 0.9545 -0.0000 -0.2982
vn -0.9990 -0.0000 0.0437
vn 0.4934 -0.0000 0.8698
vn 0.9261 -0.0000 -0.3773
vn -0.0292 -0.0000 -0.9996
vn 0.5499 -0.0000 0.8353
vn 0.8919 -0.0000 -0.4522
vn -0.0875 -0.0000 -0.9962
vn 0.6054 -0.0000 0.7959
vn 0.8527 -0.0000 -0.5225
vn -0.1458 -0.0000 -0.9893
vn 0.6595 -0.0000 0.7517
vn 0.8091 -0.0000 -0.5876
vn -0.2041 -0.0000 -0.9789
vn 0.7119 -0.0000 0.7023
vn 0.7620 -0.0000 -0.6476
vn -0.2624 -0.0000 -0.9650
vn -0.0292 -0.0000 0.9996
vn 0.7620 -0.0000 0.6476
vn 0.7119 -0.0000 -0.7023
vn -0.3205 -0.0000 -0.9472
vn -0.0875 -0.0000 0.9962
vn 0.8091 -0.0000 0.5877
vn 0.6595 -0.0000 -0.7517
vn -0.3785 -0.0000 -0.9256
vn -0.1458 -0.0000 0.9893
vn 0.8527 -0.0000 0.5225
vn 0.6054 -0.0000 -0.7959
vn -0.4362 -0.0000 -0.8999
vn -0.2041 -0.0000 0.9789
vn 0.8919 -0.0000 0.4522
vt 0.633324 0.599252
vt 0.633323 0.650749
vt 0.633358 0.655548
vt 0.633444 0.659584
vt 0.633589 0.663579
vt 0.633789 0.667512
vt 0.634046 0.671364
vt 0.634356 0.675114
vt 0.634720 0.678744
vt 0.635134 0.682235
vt 0.635597 0.685570
vt 0.636106 0.688730
vt 0.636660 0.691702
vt 0.637254 0.694468
vt 0.637886 0.697015
vt 0.638553 0.699330
vt 0.639251 0.701401
vt 0.639977 0.703218
vt 0.640727 0.704772
vt 0.641498 0.706054
vt 0.642284 0.707057
vt 0.643083 0.707778
vt 0.643890 0.708212
vt 0.644850 0.708384
vt 0.855150 0.708384
vt 0.856110 0.708212
vt 0.856917 0.707779
vt 0.857716 0.707057
vt 0.858503 0.706054
vt 0.859273 0.704772
vt 0.860023 0.703218
vt 0.860749 0.701401
vt 0.861447 0.699329
vt 0.862114 0.697015
vt 0.862746 0.694468
vt 0.863340 0.691702
vt 0.863894 0.688730
vt 0.864403 0.685569
vt 0.864866 0.682235
vt 0.865280 0.678744
vt 0.865643 0.675114
vt 0.865955 0.671364
vt 0.866211 0.667512
vt 0.866412 0.663579
vt 0.866556 0.659584
vt 0.866643 0.655548
vt 0.866677 0.650749
vt 0.866677 0.599252
vt 0.866643 0.594452
vt 0.866556 0.590416
vt 0.866411 0.586421
vt 0.866211 0.582488
vt 0.865954 0.578636
vt 0.865643 0.574885
vt 0.865280 0.571256
vt 0.864866 0.567765
vt 0.864403 0.564430
vt 0.863894 0.561270
vt 0.863340 0.558298
vt 0.862746 0.555532
vt 0.862114 0.552986
vt 0.861447 0.550670
vt 0.860749 0.548599
vt 0.860023 0.546782
vt 0.859273 0.545228
vt 0.858503 0.543946
vt 0.857715 0.542942
vt 0.856917 0.542222
vt 0.856110 0.541788
vt 0.855150 0.541616
vt 0.644851 0.541617
vt 0.643890 0.541788
vt 0.643083 0.542222
vt 0.642284 0.542942
vt 0.641497 0.543946
vt 0.640727 0.545228
vt 0.639977 0.546782
vt 0.639251 0.548599
vt 0.638553 0.550670
vt 0.637886 0.552985
vt 0.637254 0.555532
vt 0.636660 0.558299
vt 0.636106 0.561269
vt 0.635597 0.564430
vt 0.635134 0.567765
vt 0.634720 0.571256
vt 0.634356 0.574885
vt 0.634046 0.578636
vt 0.633789 0.582488
vt 0.633588 0.586421
vt 0.633444 0.590416
vt 0.633358 0.594452
s 0
f 48/1/1 92/2/1 91/3/1 90/4/1 89/5/1 88/6/1 87/7/1 86/8/1 85/9/1 84/10/1 83/11/1 82/12/1 81/13/1 80/14/1 79/15/1 78/16/1 77/17/1 76/18/1 75/19/1 74/20/1 73/21/1 72/22/1 70/23/1 71/24/1 1/25/1 2/26/1 3/27/1 4/28/1 5/29/1 6/30/1 7/31/1 8/32/1 9/33/1 10/34/1 11/35/1 12/36/1 13/37/1 14/38/1 15/39/1 16/40/1 17/41/1 18/42/1 19/43/1 20/44/1 21/45/1 22/46/1 23/47/1 46/48/1 45/49/1 44/50/1 43/51/1 42/52/1 41/53/1 40/54/1 39/55/1 38/56/1 37/57/1 36/58/1 35/59/1 34/60/1 33/61/1 32/62/1 31/63/1 30/64/1 29/65/1 28/66/1 27/67/1 26/68/1 24/69/1 25/70/1 69/71/1 68/72/1 67/73/1 66/74/1 65/75/1 64/76/1 63/77/1 62/78/1 61/79/1 60/80/1 59/81/1 58/82/1 57/83/1 56/84/1 55/85/1 54/86/1 53/87/1 52/88/1 51/89/1 50/90/1 49/91/1 47/92/1
f 140/1/2 139/92/2 141/91/2 142/90/2 143/89/2 144/88/2 145/87/2 146/86/2 147/85/2 148/84/2 149/83/2 150/82/2 151/81/2 152/80/2 153/79/2 154/78/2 155/77/2 156/76/2 157/75/2 158/74/2 159/73/2 160/72/2 161/71/2 117/70/2 116/69/2 118/68/2 119/67/2 120/66/2 121/65/2 122/64/2 123/63/2 124/62/2 125/61/2 126/60/2 127/59/2 128/58/2 129/57/2 130/56/2 131/55/2 132/54/2 133/53/2 134/52/2 135/51/2 136/50/2 137/49/2 138/48/2 115/47/2 114/46/2 113/45/2 112/44/2 111/43/2 110/42/2 109/41/2 108/40/2 107/39/2 106/38/2 105/37/2 104/36/2 103/35/2 102/34/2 101/33/2 100/32/2 99/31/2 98/30/2 97/29/2 96/28/2 95/27/2 94/26/2 93/25/2 163/24/2 162/23/2 164/22/2 165/21/2 166/20/2 167/19/2 168/18/2 169/17/2 170/16/2 171/15/2 172/14/2 173/13/2 174/12/2 175/11/2 176/10/2 177/9/2 178/8/2 179/7/2 180/6/2 181/5/2 182/4/2 183/3/2 184/2/2
f 59/81/3 60/80/3 152/80/3 151/81/3
f 32/62/4 33/61/4 125/61/4 124/62/4
f 6/30/5 5/29/5 97/29/5 98/30/5
f 87/7/6 88/6/6 180/6/6 179/7/6
f 60/80/7 61/79/7 153/79/7 152/80/7
f 33/61/8 34/60/8 126/60/8 125/61/8
f 7/31/9 6/30/9 98/30/9 99/31/9
f 88/6/10 89/5/10 181/5/10 180/6/10
f 61/79/11 62/78/11 154/78/11 153/79/11
f 34/60/12 35/59/12 127/59/12 126/60/12
f 8/32/13 7/31/13 99/31/13 100/32/13
f 89/5/14 90/4/14 182/4/14 181/5/14
f 62/78/15 63/77/15 155/77/15 154/78/15
f 35/59/16 36/58/16 128/58/16 127/59/16
f 9/33/17 8/32/17 100/32/17 101/33/17
f 90/4/18 91/3/18 183/3/18 182/4/18
f 63/77/19 64/76/19 156/76/19 155/77/19
f 36/58/20 37/57/20 129/57/20 128/58/20
f 10/34/21 9/33/21 101/33/21 102/34/21
f 91/3/22 92/2/22 184/2/22 183/3/22
f 64/76/23 65/75/23 157/75/23 156/76/23
f 37/57/24 38/56/24 130/56/24 129/57/24
f 11/35/25 10/34/25 102/34/25 103/35/25
f 46/48/26 23/47/26 115/47/26 138/48/26
f 65/75/27 66/74/27 158/74/27 157/75/27
f 38/56/28 39/55/28 131/55/28 130/56/28
f 12/36/29 11/35/29 103/35/29 104/36/29
f 1/25/30 71/24/30 163/24/30 93/25/30
f 66/74/31 67/73/31 159/73/31 158/74/31
f 39/55/32 40/54/32 132/54/32 131/55/32
f 13/37/33 12/36/33 104/36/33 105/37/33
f 92/2/34 48/1/34 140/1/34 184/2/34
f 67/73/35 68/72/35 160/72/35 159/73/35
f 40/54/36 41/53/36 133/53/36 132/54/36
f 14/38/37 13/37/37 105/37/37 106/38/37
f 69/71/38 25/70/38 117/70/38 161/71/38
f 68/72/39 69/71/39 161/71/39 160/72/39
f 41/53/40 42/52/40 134/52/40 133/53/40
f 15/39/41 14/38/41 106/38/41 107/39/41
f 71/24/42 70/23/42 162/23/42 163/24/42
f 42/52/43 43/51/43 135/51/43 134/52/43
f 16/40/44 15/39/44 107/39/44 108/40/44
f 70/23/45 72/22/45 164/22/45 162/23/45
f 43/51/46 44/50/46 136/50/46 135/51/46
f 17/41/47 16/40/47 108/40/47 109/41/47
f 72/22/48 73/21/48 165/21/48 164/22/48
f 44/50/49 45/49/49 137/49/49 136/50/49
f 18/42/50 17/41/50 109/41/50 110/42/50
f 73/21/51 74/20/51 166/20/51 165/21/51
f 45/49/52 46/48/52 138/48/52 137/49/52
f 19/43/53 18/42/53 110/42/53 111/43/53
f 74/20/54 75/19/54 167/19/54 166/20/54
f 48/1/55 47/92/55 139/92/55 140/1/55
f 20/44/56 19/43/56 111/43/56 112/44/56
f 75/19/57 76/18/57 168/18/57 167/19/57
f 47/92/58 49/91/58 141/91/58 139/92/58
f 21/45/59 20/44/59 112/44/59 113/45/59
f 76/18/60 77/17/60 169/17/60 168/18/60
f 49/91/61 50/90/61 142/90/61 141/91/61
f 22/46/62 21/45/62 113/45/62 114/46/62
f 77/17/63 78/16/63 170/16/63 169/17/63
f 50/90/64 51/89/64 143/89/64 142/90/64
f 23/47/65 22/46/65 114/46/65 115/47/65
f 78/16/66 79/15/66 171/15/66 170/16/66
f 51/89/67 52/88/67 144/88/67 143/89/67
f 25/70/68 24/69/68 116/69/68 117/70/68
f 79/15/69 80/14/69 172/14/69 171/15/69
f 52/88/70 53/87/70 145/87/70 144/88/70
f 24/69/71 26/68/71 118/68/71 116/69/71
f 80/14/72 81/13/72 173/13/72 172/14/72
f 53/87/73 54/86/73 146/86/73 145/87/73
f 26/68/74 27/67/74 119/67/74 118/68/74
f 81/13/75 82/12/75 174/12/75 173/13/75
f 54/86/76 55/85/76 147/85/76 146/86/76
f 27/67/77 28/66/77 120/66/77 119/67/77
f 82/12/78 83/11/78 175/11/78 174/12/78
f 55/85/79 56/84/79 148/84/79 147/85/79
f 28/66/80 29/65/80 121/65/80 120/66/80
f 2/26/81 1/25/81 93/25/81 94/26/81
f 83/11/82 84/10/82 176/10/82 175/11/82
f 56/84/83 57/83/83 149/83/83 148/84/83
f 29/65/84 30/64/84 122/64/84 121/65/84
f 3/27/85 2/26/85 94/26/85 95/27/85
f 84/10/86 85/9/86 177/9/86 176/10/86
f 57/83/87 58/82/87 150/82/87 149/83/87
f 30/64/88 31/63/88 123/63/88 122/64/88
f 4/28/89 3/27/89 95/27/89 96/28/89
f 85/9/90 86/8/90 178/8/90 177/9/90
f 58/82/91 59/81/91 151/81/91 150/82/91
f 31/63/92 32/62/92 124/62/92 123/63/92
f 5/29/93 4/28/93 96/28/93 97/29/93
f 86/8/94 87/7/94 179/7/94 178/8/94
