{
  "header": {
    "PPQ": 960,
    "timeSignature": [
      4,
      4
    ],
    "bpm": 118.99992463338107,
    "name": "d01"
  },
  "tempo": [
    {
      "absoluteTime": 0,
      "seconds": 0,
      "bpm": 118.99992463338107
    }
  ],
  "timeSignature": [
    {
      "absoluteTime": 0,
      "seconds": 0,
      "numerator": 4,
      "denominator": 2,
      "click": 24,
      "notesQ": 8
    }
  ],
  "startTime": 0,
  "duration": 78.01107881875,
  "tracks": [
    {
      "startTime": 0,
      "duration": 0,
      "length": 0,
      "notes": [],
      "controlChanges": {},
      "id": 0,
      "name": "d01"
    },
    {
      "startTime": 2.0168079999999997,
      "duration": 78.01107881875,
      "length": 186,
      "notes": [
        {
          "name": "D4",
          "midi": 62,
          "time": 2.0168079999999997,
          "velocity": 0.5669291338582677,
          "duration": 0.20010516874999995
        },
        {
          "name": "D4",
          "midi": 62,
          "time": 4.033615999999999,
          "velocity": 0.5511811023622047,
          "duration": 0.20273122083333295
        },
        {
          "name": "C4",
          "midi": 60,
          "time": 5.546221999999998,
          "velocity": 0.6299212598425197,
          "duration": 0.18907574999999976
        },
        {
          "name": "C4",
          "midi": 60,
          "time": 6.050423999999998,
          "velocity": 0.7322834645669292,
          "duration": 0.15756312500000025
        },
        {
          "name": "D4",
          "midi": 62,
          "time": 6.554625999999998,
          "velocity": 0.5511811023622047,
          "duration": 0.19327743333333292
        },
        {
          "name": "D4",
          "midi": 62,
          "time": 8.067231999999997,
          "velocity": 0.5354330708661418,
          "duration": 0.2016808000000001
        },
        {
          "name": "C4",
          "midi": 60,
          "time": 9.075635999999998,
          "velocity": 0.6850393700787402,
          "duration": 0.1586135458333331
        },
        {
          "name": "C4",
          "midi": 60,
          "time": 9.579837999999997,
          "velocity": 0.6850393700787402,
          "duration": 0.15598749375000054
        },
        {
          "name": "D4",
          "midi": 62,
          "time": 10.084039999999998,
          "velocity": 0.5354330708661418,
          "duration": 0.18592448749999946
        },
        {
          "name": "C4",
          "midi": 60,
          "time": 13.113453683333331,
          "velocity": 0.5354330708661418,
          "duration": 0.1848740666666675
        },
        {
          "name": "E4",
          "midi": 64,
          "time": 13.361353,
          "velocity": 0.5669291338582677,
          "duration": 0.1318278145833336
        },
        {
          "name": "D4",
          "midi": 62,
          "time": 14.113979527083332,
          "velocity": 0.5669291338582677,
          "duration": 0.25577747291666597
        },
        {
          "name": "F4",
          "midi": 65,
          "time": 14.621857999999998,
          "velocity": 0.5669291338582677,
          "duration": 0.14758412708333246
        },
        {
          "name": "C4",
          "midi": 60,
          "time": 15.126059999999997,
          "velocity": 0.5511811023622047,
          "duration": 0.11817234375000041
        },
        {
          "name": "D4",
          "midi": 62,
          "time": 16.134463999999998,
          "velocity": 0.5354330708661418,
          "duration": 0.20168079999999833
        },
        {
          "name": "F4",
          "midi": 65,
          "time": 16.638665999999997,
          "velocity": 0.5196850393700787,
          "duration": 0.12815134166666908
        },
        {
          "name": "C4",
          "midi": 60,
          "time": 16.7647165,
          "velocity": 0.5826771653543307,
          "duration": 0.13918076041666794
        },
        {
          "name": "E4",
          "midi": 64,
          "time": 17.394969,
          "velocity": 0.5354330708661418,
          "duration": 0.11607150208333294
        },
        {
          "name": "D4",
          "midi": 62,
          "time": 18.151272,
          "velocity": 0.5354330708661418,
          "duration": 0.17962196250000062
        },
        {
          "name": "F4",
          "midi": 65,
          "time": 18.655473999999998,
          "velocity": 0.5511811023622047,
          "duration": 0.16754212291666803
        },
        {
          "name": "C4",
          "midi": 60,
          "time": 19.0336255,
          "velocity": 0.5354330708661418,
          "duration": 0.1612395979166692
        },
        {
          "name": "D4",
          "midi": 62,
          "time": 19.159676,
          "velocity": 0.5196850393700787,
          "duration": 0.18382364583333555
        },
        {
          "name": "D4",
          "midi": 62,
          "time": 20.168080000000003,
          "velocity": 0.5354330708661418,
          "duration": 0.1948530645833344
        },
        {
          "name": "F4",
          "midi": 65,
          "time": 20.672282000000003,
          "velocity": 0.5196850393700787,
          "duration": 0.1381303395833342
        },
        {
          "name": "C4",
          "midi": 60,
          "time": 21.050433500000004,
          "velocity": 0.5354330708661418,
          "duration": 0.12447486874999925
        },
        {
          "name": "D4",
          "midi": 62,
          "time": 21.176484000000002,
          "velocity": 0.5196850393700787,
          "duration": 0.18277322499999826
        },
        {
          "name": "E4",
          "midi": 64,
          "time": 21.428585,
          "velocity": 0.5354330708661418,
          "duration": 0.09086140208333404
        },
        {
          "name": "D4",
          "midi": 62,
          "time": 22.184888,
          "velocity": 0.5354330708661418,
          "duration": 0.18592448749999946
        },
        {
          "name": "C4",
          "midi": 60,
          "time": 22.184888,
          "velocity": 0.5039370078740157,
          "duration": 0.13287823541666555
        },
        {
          "name": "F4",
          "midi": 65,
          "time": 22.5630395,
          "velocity": 0.5354330708661418,
          "duration": 0.15966396666666682
        },
        {
          "name": "D4",
          "midi": 62,
          "time": 23.193292,
          "velocity": 0.5196850393700787,
          "duration": 0.1869749083333332
        },
        {
          "name": "D4",
          "midi": 62,
          "time": 24.201696,
          "velocity": 0.5354330708661418,
          "duration": 0.19275222291666694
        },
        {
          "name": "C4",
          "midi": 60,
          "time": 24.201696,
          "velocity": 0.5354330708661418,
          "duration": 0.1465337062500005
        },
        {
          "name": "F4",
          "midi": 65,
          "time": 24.705897999999998,
          "velocity": 0.5039370078740157,
          "duration": 0.12552528958333298
        },
        {
          "name": "D4",
          "midi": 62,
          "time": 25.210099999999997,
          "velocity": 0.5039370078740157,
          "duration": 0.2006303791666646
        },
        {
          "name": "C4",
          "midi": 60,
          "time": 25.210099999999997,
          "velocity": 0.6141732283464567,
          "duration": 0.11397066041666548
        },
        {
          "name": "E4",
          "midi": 64,
          "time": 25.462200999999997,
          "velocity": 0.5354330708661418,
          "duration": 0.07405466875000144
        },
        {
          "name": "D4",
          "midi": 62,
          "time": 26.218504,
          "velocity": 0.48031496062992124,
          "duration": 0.18750011874999828
        },
        {
          "name": "F4",
          "midi": 65,
          "time": 26.722706,
          "velocity": 0.5354330708661418,
          "duration": 0.12342444791666551
        },
        {
          "name": "D4",
          "midi": 62,
          "time": 27.226907999999998,
          "velocity": 0.5196850393700787,
          "duration": 0.17909675208333198
        },
        {
          "name": "D4",
          "midi": 62,
          "time": 28.235311999999997,
          "velocity": 0.5196850393700787,
          "duration": 0.1439076541666644
        },
        {
          "name": "C4",
          "midi": 60,
          "time": 28.235311999999997,
          "velocity": 0.5354330708661418,
          "duration": 0.1433824437499993
        },
        {
          "name": "F4",
          "midi": 65,
          "time": 28.739513999999996,
          "velocity": 0.5196850393700787,
          "duration": 0.1465337062500005
        },
        {
          "name": "C4",
          "midi": 60,
          "time": 29.117665499999998,
          "velocity": 0.5354330708661418,
          "duration": 0.1013656104166678
        },
        {
          "name": "D4",
          "midi": 62,
          "time": 29.243716,
          "velocity": 0.5354330708661418,
          "duration": 0.17909675208333198
        },
        {
          "name": "E4",
          "midi": 64,
          "time": 29.495817,
          "velocity": 0.5196850393700787,
          "duration": 0.0929622437500015
        },
        {
          "name": "C4",
          "midi": 60,
          "time": 30.25212,
          "velocity": 0.48031496062992124,
          "duration": 0.15126060000000052
        },
        {
          "name": "F4",
          "midi": 65,
          "time": 30.756322,
          "velocity": 0.4881889763779528,
          "duration": 0.1470589166666656
        },
        {
          "name": "D4",
          "midi": 62,
          "time": 31.260524,
          "velocity": 0.5196850393700787,
          "duration": 0.1418068125000005
        },
        {
          "name": "C4",
          "midi": 60,
          "time": 32.3949785,
          "velocity": 0.5039370078740157,
          "duration": 0.09663871666666779
        },
        {
          "name": "F4",
          "midi": 65,
          "time": 33.1512815,
          "velocity": 0.5196850393700787,
          "duration": 0.16701691249999584
        },
        {
          "name": "E4",
          "midi": 64,
          "time": 33.277332,
          "velocity": 0.5669291338582677,
          "duration": 0.10819334583332818
        },
        {
          "name": "D4",
          "midi": 62,
          "time": 33.277332,
          "velocity": 0.5196850393700787,
          "duration": 0.15126059999999342
        },
        {
          "name": "F4",
          "midi": 65,
          "time": 34.28573599999999,
          "velocity": 0.5354330708661418,
          "duration": 0.12289923750000042
        },
        {
          "name": "C4",
          "midi": 60,
          "time": 34.28573599999999,
          "velocity": 0.5196850393700787,
          "duration": 0.10661771458333646
        },
        {
          "name": "D4",
          "midi": 62,
          "time": 35.29413999999999,
          "velocity": 0.5196850393700787,
          "duration": 0.14128160208333185
        },
        {
          "name": "C4",
          "midi": 60,
          "time": 36.17649349999999,
          "velocity": 0.5196850393700787,
          "duration": 0.11186981875000157
        },
        {
          "name": "C4",
          "midi": 60,
          "time": 36.428594499999996,
          "velocity": 0.5354330708661418,
          "duration": 0.1160715020833365
        },
        {
          "name": "D4",
          "midi": 62,
          "time": 37.310947999999996,
          "velocity": 0.5039370078740157,
          "duration": 0.14495807499999813
        },
        {
          "name": "D4",
          "midi": 62,
          "time": 39.201705499999996,
          "velocity": 0.5039370078740157,
          "duration": 0.14495807499999813
        },
        {
          "name": "C4",
          "midi": 60,
          "time": 39.327755999999994,
          "velocity": 0.48031496062992124,
          "duration": 0.10661771458333646
        },
        {
          "name": "E4",
          "midi": 64,
          "time": 39.327755999999994,
          "velocity": 0.5511811023622047,
          "duration": 0.09716392708333643
        },
        {
          "name": "C4",
          "midi": 60,
          "time": 39.579857,
          "velocity": 0.4881889763779528,
          "duration": 0.0955882958333305
        },
        {
          "name": "E4",
          "midi": 64,
          "time": 39.579857,
          "velocity": 0.6141732283464567,
          "duration": 0.09978997916666543
        },
        {
          "name": "D4",
          "midi": 62,
          "time": 40.210109499999994,
          "velocity": 0.5354330708661418,
          "duration": 0.1806723833333308
        },
        {
          "name": "E4",
          "midi": 64,
          "time": 40.33615999999999,
          "velocity": 0.5196850393700787,
          "duration": 0.0955882958333305
        },
        {
          "name": "F4",
          "midi": 65,
          "time": 40.84036199999999,
          "velocity": 0.5669291338582677,
          "duration": 0.1418068125000005
        },
        {
          "name": "D4",
          "midi": 62,
          "time": 41.34456399999999,
          "velocity": 0.4881889763779528,
          "duration": 0.1638656499999982
        },
        {
          "name": "F4",
          "midi": 65,
          "time": 41.84876599999999,
          "velocity": 0.5511811023622047,
          "duration": 0.1586135458333331
        },
        {
          "name": "E4",
          "midi": 64,
          "time": 42.100866999999994,
          "velocity": 0.5511811023622047,
          "duration": 0.14495807499999813
        },
        {
          "name": "D4",
          "midi": 62,
          "time": 42.35296799999999,
          "velocity": 0.5196850393700787,
          "duration": 0.17489506874999705
        },
        {
          "name": "E4",
          "midi": 64,
          "time": 42.35296799999999,
          "velocity": 0.5511811023622047,
          "duration": 0.10976897708333411
        },
        {
          "name": "C4",
          "midi": 60,
          "time": 42.47901849999999,
          "velocity": 0.5196850393700787,
          "duration": 0.11554629166666786
        },
        {
          "name": "F4",
          "midi": 65,
          "time": 42.85716999999999,
          "velocity": 0.4881889763779528,
          "duration": 0.13497907708333656
        },
        {
          "name": "D4",
          "midi": 62,
          "time": 43.361371999999996,
          "velocity": 0.4881889763779528,
          "duration": 0.15336144166666799
        },
        {
          "name": "C4",
          "midi": 60,
          "time": 43.361371999999996,
          "velocity": 0.5196850393700787,
          "duration": 0.09978997916666543
        },
        {
          "name": "F4",
          "midi": 65,
          "time": 43.865573999999995,
          "velocity": 0.5196850393700787,
          "duration": 0.15966396666666327
        },
        {
          "name": "E4",
          "midi": 64,
          "time": 44.24372549999999,
          "velocity": 0.5196850393700787,
          "duration": 0.13340344583333064
        },
        {
          "name": "C4",
          "midi": 60,
          "time": 44.36977599999999,
          "velocity": 0.4881889763779528,
          "duration": 0.06670172291666887
        },
        {
          "name": "D4",
          "midi": 62,
          "time": 44.49582649999999,
          "velocity": 0.5511811023622047,
          "duration": 0.17909675208333198
        },
        {
          "name": "C4",
          "midi": 60,
          "time": 44.62187699999999,
          "velocity": 0.5196850393700787,
          "duration": 0.10556729374999918
        },
        {
          "name": "F4",
          "midi": 65,
          "time": 44.87397799999999,
          "velocity": 0.48031496062992124,
          "duration": 0.12027318541666432
        },
        {
          "name": "D4",
          "midi": 62,
          "time": 45.12607899999998,
          "velocity": 0.6614173228346457,
          "duration": 0.14810933750000288
        },
        {
          "name": "D4",
          "midi": 62,
          "time": 45.378179999999986,
          "velocity": 0.5984251968503937,
          "duration": 0.13655470833333538
        },
        {
          "name": "C4",
          "midi": 60,
          "time": 45.378179999999986,
          "velocity": 0.5354330708661418,
          "duration": 0.14023118125000167
        },
        {
          "name": "E4",
          "midi": 64,
          "time": 45.378179999999986,
          "velocity": 0.5039370078740157,
          "duration": 0.09611350624999915
        },
        {
          "name": "E4",
          "midi": 64,
          "time": 45.63028099999999,
          "velocity": 0.4881889763779528,
          "duration": 0.1018908208333329
        },
        {
          "name": "D4",
          "midi": 62,
          "time": 46.38658399999999,
          "velocity": 0.6299212598425197,
          "duration": 0.13655470833332828
        },
        {
          "name": "C4",
          "midi": 60,
          "time": 46.51263449999999,
          "velocity": 0.4881889763779528,
          "duration": 0.12342444791666196
        },
        {
          "name": "F4",
          "midi": 65,
          "time": 46.890785999999984,
          "velocity": 0.5354330708661418,
          "duration": 0.14023118125000167
        },
        {
          "name": "D4",
          "midi": 62,
          "time": 47.394987999999984,
          "velocity": 0.5354330708661418,
          "duration": 0.1391807604166715
        },
        {
          "name": "C4",
          "midi": 60,
          "time": 47.394987999999984,
          "velocity": 0.5196850393700787,
          "duration": 0.14548328541667388
        },
        {
          "name": "E4",
          "midi": 64,
          "time": 47.394987999999984,
          "velocity": 0.5196850393700787,
          "duration": 0.09138661250000268
        },
        {
          "name": "F4",
          "midi": 65,
          "time": 47.89918999999999,
          "velocity": 0.48031496062992124,
          "duration": 0.16176480833333073
        },
        {
          "name": "D4",
          "midi": 62,
          "time": 48.40339199999999,
          "velocity": 0.5511811023622047,
          "duration": 0.17857154166666334
        },
        {
          "name": "C4",
          "midi": 60,
          "time": 48.40339199999999,
          "velocity": 0.4330708661417323,
          "duration": 0.09926476874999679
        },
        {
          "name": "C4",
          "midi": 60,
          "time": 48.655492999999986,
          "velocity": 0.48031496062992124,
          "duration": 0.10399166250000036
        },
        {
          "name": "F4",
          "midi": 65,
          "time": 48.90759399999999,
          "velocity": 0.5196850393700787,
          "duration": 0.12605049999999807
        },
        {
          "name": "D4",
          "midi": 62,
          "time": 49.41179599999999,
          "velocity": 0.5354330708661418,
          "duration": 0.16281522916666802
        },
        {
          "name": "F4",
          "midi": 65,
          "time": 49.41179599999999,
          "velocity": 0.4881889763779528,
          "duration": 0.11502108124999921
        },
        {
          "name": "D4",
          "midi": 62,
          "time": 49.66389699999999,
          "velocity": 0.5196850393700787,
          "duration": 0.1470589166666656
        },
        {
          "name": "E4",
          "midi": 64,
          "time": 50.04204849999999,
          "velocity": 0.5511811023622047,
          "duration": 0.10976897708333411
        },
        {
          "name": "C4",
          "midi": 60,
          "time": 50.16809899999999,
          "velocity": 0.48031496062992124,
          "duration": 0.09873955833333525
        },
        {
          "name": "D4",
          "midi": 62,
          "time": 50.420199999999994,
          "velocity": 0.5826771653543307,
          "duration": 0.21008416666666818
        },
        {
          "name": "F4",
          "midi": 65,
          "time": 50.420199999999994,
          "velocity": 0.5039370078740157,
          "duration": 0.1433824437499993
        },
        {
          "name": "C4",
          "midi": 60,
          "time": 50.672301,
          "velocity": 0.5354330708661418,
          "duration": 0.12447486874999925
        },
        {
          "name": "E4",
          "midi": 64,
          "time": 51.0504525,
          "velocity": 0.5354330708661418,
          "duration": 0.12027318541666432
        },
        {
          "name": "E4",
          "midi": 64,
          "time": 51.302553499999995,
          "velocity": 0.5039370078740157,
          "duration": 0.09453787500000033
        },
        {
          "name": "D4",
          "midi": 62,
          "time": 51.42860399999999,
          "velocity": 0.5354330708661418,
          "duration": 0.18382364583333555
        },
        {
          "name": "C4",
          "midi": 60,
          "time": 52.184906999999995,
          "velocity": 0.5669291338582677,
          "duration": 0.15966396666666327
        },
        {
          "name": "D4",
          "midi": 62,
          "time": 52.43700799999999,
          "velocity": 0.5511811023622047,
          "duration": 0.17962196250000062
        },
        {
          "name": "F4",
          "midi": 65,
          "time": 52.689108999999995,
          "velocity": 0.48031496062992124,
          "duration": 0.1612395979166692
        },
        {
          "name": "C4",
          "midi": 60,
          "time": 52.689108999999995,
          "velocity": 0.5511811023622047,
          "duration": 0.11397066041666903
        },
        {
          "name": "E4",
          "midi": 64,
          "time": 53.067260499999996,
          "velocity": 0.5511811023622047,
          "duration": 0.11344545000000039
        },
        {
          "name": "D4",
          "midi": 62,
          "time": 53.193310999999994,
          "velocity": 0.6299212598425197,
          "duration": 0.13970597083333303
        },
        {
          "name": "E4",
          "midi": 64,
          "time": 53.31936149999999,
          "velocity": 0.5511811023622047,
          "duration": 0.11029418750000275
        },
        {
          "name": "D4",
          "midi": 62,
          "time": 53.445412,
          "velocity": 0.5984251968503937,
          "duration": 0.11134460833333293
        },
        {
          "name": "D4",
          "midi": 62,
          "time": 53.697512999999994,
          "velocity": 0.6141732283464567,
          "duration": 0.10871855624999682
        },
        {
          "name": "F4",
          "midi": 65,
          "time": 53.82356349999999,
          "velocity": 0.5196850393700787,
          "duration": 0.1701681750000006
        },
        {
          "name": "C4",
          "midi": 60,
          "time": 53.94961399999999,
          "velocity": 0.5669291338582677,
          "duration": 0.15126060000000052
        },
        {
          "name": "D4",
          "midi": 62,
          "time": 54.45381599999999,
          "velocity": 0.6850393700787402,
          "duration": 0.1717438062499994
        },
        {
          "name": "C4",
          "midi": 60,
          "time": 54.45381599999999,
          "velocity": 0.5511811023622047,
          "duration": 0.13077739375000164
        },
        {
          "name": "F4",
          "midi": 65,
          "time": 54.95801799999999,
          "velocity": 0.48031496062992124,
          "duration": 0.1832984354166669
        },
        {
          "name": "D4",
          "midi": 62,
          "time": 55.46221999999999,
          "velocity": 0.6614173228346457,
          "duration": 0.15021017916666324
        },
        {
          "name": "C4",
          "midi": 60,
          "time": 55.46221999999999,
          "velocity": 0.5669291338582677,
          "duration": 0.15546228333332834
        },
        {
          "name": "E4",
          "midi": 64,
          "time": 55.46221999999999,
          "velocity": 0.5196850393700787,
          "duration": 0.1018908208333329
        },
        {
          "name": "E4",
          "midi": 64,
          "time": 55.714320999999984,
          "velocity": 0.4645669291338583,
          "duration": 0.06039919791666648
        },
        {
          "name": "E4",
          "midi": 64,
          "time": 55.84037149999998,
          "velocity": 0.4566929133858268,
          "duration": 0.0877101395833364
        },
        {
          "name": "F4",
          "midi": 65,
          "time": 55.96642199999999,
          "velocity": 0.4881889763779528,
          "duration": 0.13602949791665964
        },
        {
          "name": "C4",
          "midi": 60,
          "time": 55.96642199999999,
          "velocity": 0.5669291338582677,
          "duration": 0.12184881666666314
        },
        {
          "name": "D4",
          "midi": 62,
          "time": 56.47062399999998,
          "velocity": 0.6850393700787402,
          "duration": 0.14915975833333306
        },
        {
          "name": "F4",
          "midi": 65,
          "time": 56.97482599999998,
          "velocity": 0.4881889763779528,
          "duration": 0.11712192291666668
        },
        {
          "name": "C4",
          "midi": 60,
          "time": 56.97482599999998,
          "velocity": 0.5511811023622047,
          "duration": 0.1612395979166692
        },
        {
          "name": "F4",
          "midi": 65,
          "time": 57.22692699999998,
          "velocity": 0.4881889763779528,
          "duration": 0.11554629166666786
        },
        {
          "name": "D4",
          "midi": 62,
          "time": 57.479027999999985,
          "velocity": 0.6299212598425197,
          "duration": 0.19432785416667286
        },
        {
          "name": "C4",
          "midi": 60,
          "time": 57.479027999999985,
          "velocity": 0.5354330708661418,
          "duration": 0.1407563916666703
        },
        {
          "name": "E4",
          "midi": 64,
          "time": 57.479027999999985,
          "velocity": 0.48031496062992124,
          "duration": 0.09873955833333525
        },
        {
          "name": "E4",
          "midi": 64,
          "time": 57.73112899999999,
          "velocity": 0.5039370078740157,
          "duration": 0.10136561041666425
        },
        {
          "name": "F4",
          "midi": 65,
          "time": 57.983229999999985,
          "velocity": 0.5196850393700787,
          "duration": 0.1381303395833342
        },
        {
          "name": "E4",
          "midi": 64,
          "time": 57.983229999999985,
          "velocity": 0.4566929133858268,
          "duration": 0.0903361916666654
        },
        {
          "name": "D4",
          "midi": 62,
          "time": 58.487431999999984,
          "velocity": 0.6299212598425197,
          "duration": 0.1832984354166669
        },
        {
          "name": "C4",
          "midi": 60,
          "time": 58.487431999999984,
          "velocity": 0.5354330708661418,
          "duration": 0.13077739375000164
        },
        {
          "name": "F4",
          "midi": 65,
          "time": 58.99163399999998,
          "velocity": 0.5039370078740157,
          "duration": 0.11659671249999803
        },
        {
          "name": "C4",
          "midi": 60,
          "time": 58.99163399999998,
          "velocity": 0.5669291338582677,
          "duration": 0.15808833541666445
        },
        {
          "name": "F4",
          "midi": 65,
          "time": 59.24373499999998,
          "velocity": 0.4645669291338583,
          "duration": 0.12447486874999925
        },
        {
          "name": "D4",
          "midi": 62,
          "time": 59.495835999999976,
          "velocity": 0.6299212598425197,
          "duration": 0.18119759374999944
        },
        {
          "name": "E4",
          "midi": 64,
          "time": 59.495835999999976,
          "velocity": 0.5039370078740157,
          "duration": 0.11659671249999803
        },
        {
          "name": "E4",
          "midi": 64,
          "time": 59.621886499999974,
          "velocity": 0.4645669291338583,
          "duration": 0.10924376666666546
        },
        {
          "name": "F4",
          "midi": 65,
          "time": 59.87398749999997,
          "velocity": 0.5354330708661418,
          "duration": 0.17384464791666687
        },
        {
          "name": "C4",
          "midi": 60,
          "time": 60.00003799999997,
          "velocity": 0.5669291338582677,
          "duration": 0.15441186249999816
        },
        {
          "name": "E4",
          "midi": 64,
          "time": 60.00003799999997,
          "velocity": 0.30708661417322836,
          "duration": 0.048844568749998984
        },
        {
          "name": "D4",
          "midi": 62,
          "time": 60.50423999999997,
          "velocity": 0.6614173228346457,
          "duration": 0.21376063958333447
        },
        {
          "name": "C4",
          "midi": 60,
          "time": 60.50423999999997,
          "velocity": 0.5826771653543307,
          "duration": 0.15441186249999816
        },
        {
          "name": "F4",
          "midi": 65,
          "time": 61.00844199999997,
          "velocity": 0.5039370078740157,
          "duration": 0.1160715020833365
        },
        {
          "name": "F4",
          "midi": 65,
          "time": 61.13449249999997,
          "velocity": 0.4881889763779528,
          "duration": 0.13760512916666556
        },
        {
          "name": "D4",
          "midi": 62,
          "time": 61.26054299999997,
          "velocity": 0.6614173228346457,
          "duration": 0.11764713333333532
        },
        {
          "name": "E4",
          "midi": 64,
          "time": 61.386593499999975,
          "velocity": 0.4881889763779528,
          "duration": 0.10976897708333411
        },
        {
          "name": "D4",
          "midi": 62,
          "time": 61.51264399999997,
          "velocity": 0.6614173228346457,
          "duration": 0.10609250416666782
        },
        {
          "name": "C4",
          "midi": 60,
          "time": 61.51264399999997,
          "velocity": 0.5511811023622047,
          "duration": 0.15126060000000052
        },
        {
          "name": "E4",
          "midi": 64,
          "time": 61.63869449999997,
          "velocity": 0.48031496062992124,
          "duration": 0.1418068125000076
        },
        {
          "name": "D4",
          "midi": 62,
          "time": 61.76474499999998,
          "velocity": 0.6614173228346457,
          "duration": 0.11081939791667139
        },
        {
          "name": "F4",
          "midi": 65,
          "time": 62.01684599999998,
          "velocity": 0.5354330708661418,
          "duration": 0.16071438750000056
        },
        {
          "name": "C4",
          "midi": 60,
          "time": 62.52104799999998,
          "velocity": 0.5669291338582677,
          "duration": 0.14653370624999695
        },
        {
          "name": "C4",
          "midi": 60,
          "time": 63.52945199999998,
          "velocity": 0.5984251968503937,
          "duration": 0.14600849583333542
        },
        {
          "name": "C4",
          "midi": 60,
          "time": 64.53785599999998,
          "velocity": 0.6614173228346457,
          "duration": 0.1496849687499946
        },
        {
          "name": "E4",
          "midi": 64,
          "time": 65.29415899999996,
          "velocity": 0.5039370078740157,
          "duration": 0.08560929791666183
        },
        {
          "name": "C4",
          "midi": 60,
          "time": 65.54625999999996,
          "velocity": 0.6299212598425197,
          "duration": 0.13602949791666674
        },
        {
          "name": "C4",
          "midi": 60,
          "time": 66.55466399999996,
          "velocity": 0.6299212598425197,
          "duration": 0.11817234375000396
        },
        {
          "name": "E4",
          "midi": 64,
          "time": 67.32094599791662,
          "velocity": 0.5196850393700787,
          "duration": 0.11607150208332939
        },
        {
          "name": "C4",
          "midi": 60,
          "time": 67.56306799999996,
          "velocity": 0.6299212598425197,
          "duration": 0.15178581041666916
        },
        {
          "name": "C4",
          "midi": 60,
          "time": 68.57147199999996,
          "velocity": 0.6614173228346457,
          "duration": 0.13602949791666674
        },
        {
          "name": "E4",
          "midi": 64,
          "time": 69.32777499999996,
          "velocity": 0.5196850393700787,
          "duration": 0.14863454791667152
        },
        {
          "name": "C4",
          "midi": 60,
          "time": 69.57987599999997,
          "velocity": 0.6614173228346457,
          "duration": 0.11607150208332939
        },
        {
          "name": "C4",
          "midi": 60,
          "time": 70.58827999999997,
          "velocity": 0.6299212598425197,
          "duration": 0.1186975541666726
        },
        {
          "name": "E4",
          "midi": 64,
          "time": 71.35456199791665,
          "velocity": 0.5511811023622047,
          "duration": 0.11607150208332939
        },
        {
          "name": "C4",
          "midi": 60,
          "time": 71.59668399999998,
          "velocity": 0.6614173228346457,
          "duration": 0.12972697291667146
        },
        {
          "name": "C4",
          "midi": 60,
          "time": 72.60508799999998,
          "velocity": 0.6614173228346457,
          "duration": 0.13392865625000638
        },
        {
          "name": "E4",
          "midi": 64,
          "time": 73.36139099999998,
          "velocity": 0.5196850393700787,
          "duration": 0.11607150208332939
        },
        {
          "name": "C4",
          "midi": 60,
          "time": 73.61349199999998,
          "velocity": 0.6614173228346457,
          "duration": 0.13970597083333303
        },
        {
          "name": "C4",
          "midi": 60,
          "time": 74.62189599999998,
          "velocity": 0.6614173228346457,
          "duration": 0.11134460833334003
        },
        {
          "name": "E4",
          "midi": 64,
          "time": 75.37819899999998,
          "velocity": 0.5039370078740157,
          "duration": 0.15966396666667038
        },
        {
          "name": "C4",
          "midi": 60,
          "time": 75.63029999999999,
          "velocity": 0.6614173228346457,
          "duration": 0.14390765416666795
        },
        {
          "name": "E4",
          "midi": 64,
          "time": 76.386603,
          "velocity": 0.5039370078740157,
          "duration": 0.10609250416666782
        },
        {
          "name": "C4",
          "midi": 60,
          "time": 76.63870399999999,
          "velocity": 0.6614173228346457,
          "duration": 0.12657571041667381
        },
        {
          "name": "E4",
          "midi": 64,
          "time": 76.7647545,
          "velocity": 0.5039370078740157,
          "duration": 0.09401266458333168
        },
        {
          "name": "C4",
          "midi": 60,
          "time": 77.64710799999999,
          "velocity": 0.6850393700787402,
          "duration": 0.3639708187500048
        }
      ],
      "controlChanges": {},
      "id": 1,
      "name": "ReaSynth",
      "channelNumber": 0,
      "isPercussion": false
    }
  ]
}